<svg width="301" height="293" viewBox="0 0 301 293" fill="none" xmlns="http://www.w3.org/2000/svg">
<path d="M257.018 189.694L256.548 193.796L264.742 184.473C265.722 184.573 266.706 184.623 267.691 184.625" stroke="#263238" stroke-linecap="round" stroke-linejoin="round"/>
<path d="M246.754 161.402C245.678 162.983 245.003 164.791 244.785 166.676C244.009 173.491 249.499 179.937 257.795 182.92L257.373 186.582" stroke="#263238" stroke-linecap="round" stroke-linejoin="round"/>
<path d="M249.938 158.009C249.405 158.43 248.898 158.882 248.421 159.363" stroke="#263238" stroke-linecap="round" stroke-linejoin="round"/>
<path d="M280.664 158.009C276.924 155.514 272.6 153.975 268.088 153.532C263.321 152.963 258.484 153.655 254.086 155.536" stroke="#263238" stroke-linecap="round" stroke-linejoin="round"/>
<path d="M273.392 184.074C281.218 182.498 287.148 177.628 287.84 171.311C288.346 166.893 286.221 162.633 282.422 159.363" stroke="#263238" stroke-linecap="round" stroke-linejoin="round"/>
<path d="M254.092 162.539C254.755 162.659 255.435 162.65 256.094 162.514C256.754 162.377 257.378 162.115 257.933 161.742L260.859 163.951C260.654 164.015 260.672 163.594 260.889 163.582C261.106 163.57 261.268 163.764 261.419 163.916C262.105 164.625 263.261 164.648 264.242 164.443C265.223 164.238 266.18 163.857 267.18 163.892C267.774 163.953 268.359 164.085 268.92 164.285C272.941 165.498 277.125 166.108 281.291 166.705" stroke="#263238" stroke-linecap="round" stroke-linejoin="round"/>
<path d="M250.637 166.705C251.239 166.67 254.592 166.705 255.073 166.313L255.892 167.701L256.795 166.852C256.952 167.438 257.108 168.024 257.259 168.575C257.939 168.733 257.861 167.455 258.463 167.074C258.648 166.986 258.86 166.969 259.058 167.027C259.256 167.084 259.423 167.212 259.528 167.385C259.726 167.745 259.821 168.149 259.805 168.557L263.923 168.885L264.724 168.95C265.01 168.525 265.433 168.205 265.928 168.041C265.777 168.967 266.975 169.495 267.926 169.682C272.61 170.612 277.317 171.415 282.049 172.091" stroke="#263238" stroke-linecap="round" stroke-linejoin="round"/>
<path d="M252.467 173.069C252.846 173.327 253.31 172.847 253.773 172.788C254.237 172.729 254.616 173.069 255.025 173.274C255.435 173.479 256.109 173.392 256.133 172.946C256.229 173.532 256.976 173.743 257.584 173.825L273.392 175.988" stroke="#263238" stroke-linecap="round" stroke-linejoin="round"/>
<path d="M40.936 153.051L47.2691 161.349L45.9989 150.491C47.513 149.775 48.9612 148.934 50.3272 147.977C56.8168 143.406 59.4295 136.052 57.0516 130.127C55.384 125.99 51.4771 123.177 46.5407 122.011" stroke="#263238" stroke-linecap="round" stroke-linejoin="round"/>
<path d="M15.9229 139.96C15.7255 141.839 15.9896 143.737 16.6935 145.498C19.258 151.885 27.1923 155.108 35.9575 153.995" stroke="#263238" stroke-linecap="round" stroke-linejoin="round"/>
<path d="M17.121 135.512C16.8521 136.128 16.621 136.758 16.4287 137.399" stroke="#263238" stroke-linecap="round" stroke-linejoin="round"/>
<path d="M44.3314 121.613C39.8273 121.088 35.2602 121.677 31.0513 123.324C26.5591 124.977 22.6078 127.779 19.6133 131.434" stroke="#263238" stroke-linecap="round" stroke-linejoin="round"/>
<path d="M22.9604 137.64C24.2555 137.246 25.3378 136.37 25.9704 135.202L29.5825 135.835C29.4259 135.981 29.2453 135.6 29.432 135.489C29.6186 135.378 29.8534 135.489 30.034 135.548C30.9851 135.864 32.0145 135.366 32.7851 134.739C33.5557 134.112 34.2179 133.332 35.1269 132.922C35.6821 132.706 36.2623 132.557 36.8546 132.477C40.9964 131.739 44.9876 130.379 48.9669 129.025" stroke="#263238" stroke-linecap="round" stroke-linejoin="round"/>
<path d="M21.8887 142.896C22.4245 142.585 25.3923 141.103 25.6331 140.552L27.0237 141.413C27.1562 141.027 27.2886 140.634 27.415 140.241L28.6491 141.56C29.3294 141.396 28.6491 140.3 28.9742 139.702C29.0953 139.54 29.2752 139.429 29.4775 139.391C29.6797 139.352 29.8893 139.391 30.0638 139.497C30.4076 139.722 30.6839 140.031 30.8645 140.394L34.6631 138.823L35.4096 138.519C35.4524 138.015 35.6639 137.54 36.0116 137.165C36.3246 138.062 37.637 137.979 38.5641 137.716C43.1593 136.427 47.7125 135.008 52.2235 133.461" stroke="#263238" stroke-linecap="round" stroke-linejoin="round"/>
<path d="M26.5483 147.701C27.0119 147.76 27.1925 147.115 27.5717 146.857C27.951 146.6 28.4567 146.734 28.9142 146.723C29.3717 146.711 29.9316 146.342 29.7389 145.937C30.1062 146.412 30.8707 146.26 31.4426 146.06L46.4926 140.816" stroke="#263238" stroke-linecap="round" stroke-linejoin="round"/>
<path d="M224.504 52.5173H74.4014C71.479 52.5173 69.1099 54.8235 69.1099 57.6683V189.296C69.1099 192.14 71.479 194.447 74.4014 194.447H224.504C227.427 194.447 229.796 192.14 229.796 189.296V57.6683C229.796 54.8235 227.427 52.5173 224.504 52.5173Z" fill="white"/>
<path opacity="0.2" d="M229.796 130.262V189.448C229.796 190.773 229.256 192.043 228.294 192.98C227.332 193.918 226.028 194.445 224.667 194.446H74.2449C72.883 194.446 71.5769 193.92 70.6139 192.982C69.6509 192.045 69.1099 190.774 69.1099 189.448V177.728H69.4289V185.627C69.4289 186.378 69.5809 187.121 69.8763 187.815C70.1716 188.509 70.6045 189.139 71.1502 189.669C71.6959 190.2 72.3436 190.621 73.0564 190.907C73.7692 191.194 74.5331 191.341 75.3044 191.341H220.621C221.393 191.341 222.156 191.194 222.869 190.907C223.582 190.621 224.23 190.2 224.775 189.669C225.321 189.139 225.754 188.509 226.049 187.815C226.345 187.121 226.497 186.378 226.497 185.627V139.04C226.497 137.985 226.066 136.973 225.299 136.227C224.533 135.48 223.493 135.061 222.409 135.061H69.1099V130.262H229.796Z" fill="black"/>
<path d="M224.504 52.5173H74.4014C71.479 52.5173 69.1099 54.8235 69.1099 57.6683V189.296C69.1099 192.14 71.479 194.447 74.4014 194.447H224.504C227.427 194.447 229.796 192.14 229.796 189.296V57.6683C229.796 54.8235 227.427 52.5173 224.504 52.5173Z" stroke="#263238" stroke-linecap="round" stroke-linejoin="round"/>
<path d="M215.805 147.115V140.335C215.806 140.006 215.74 139.679 215.61 139.375C215.481 139.07 215.291 138.793 215.052 138.56C214.813 138.327 214.528 138.142 214.215 138.017C213.902 137.891 213.567 137.826 213.228 137.827H85.6766C84.9933 137.827 84.3379 138.091 83.8547 138.562C83.3715 139.032 83.1001 139.67 83.1001 140.335V147.115C83.1001 147.78 82.8286 148.418 82.3454 148.889C81.8622 149.359 81.2068 149.623 80.5235 149.623C79.8386 149.623 79.1817 149.888 78.6973 150.36C78.213 150.831 77.9409 151.471 77.9409 152.137V165.516C77.9409 168.601 79.1999 171.559 81.4409 173.741C83.6819 175.922 86.7214 177.148 89.8906 177.148C90.3999 177.148 90.8884 177.345 91.2485 177.695C91.6087 178.046 91.811 178.521 91.811 179.017V183.025C91.811 184.505 92.4148 185.924 93.4896 186.97C94.5644 188.016 96.0221 188.604 97.542 188.604H201.363C202.883 188.604 204.341 188.016 205.415 186.97C206.49 185.924 207.094 184.505 207.094 183.025V179.017C207.094 178.521 207.296 178.046 207.656 177.695C208.017 177.345 208.505 177.148 209.014 177.148C210.584 177.148 212.138 176.847 213.587 176.262C215.037 175.678 216.354 174.821 217.464 173.741C218.574 172.661 219.454 171.378 220.054 169.967C220.655 168.556 220.964 167.043 220.964 165.516V152.137C220.964 151.472 220.693 150.833 220.21 150.362C219.727 149.89 219.071 149.625 218.388 149.623C217.704 149.623 217.048 149.359 216.563 148.889C216.079 148.419 215.807 147.781 215.805 147.115Z" fill="#263238"/>
<path d="M92.8707 141.666H88.4099C87.8639 141.666 87.3402 141.877 86.9541 142.253C86.568 142.628 86.3511 143.138 86.3511 143.67V144.783C86.3511 147.092 88.2715 150.022 90.6433 150.022C93.0152 150.022 94.9356 147.092 94.9356 144.783V143.67C94.934 143.138 94.7157 142.628 94.3287 142.252C93.9416 141.876 93.4173 141.666 92.8707 141.666Z" fill="white" stroke="#263238" stroke-linecap="round" stroke-linejoin="round"/>
<path d="M103.544 141.666H99.0834C98.5368 141.666 98.0125 141.876 97.6255 142.252C97.2384 142.628 97.0201 143.138 97.0186 143.67V144.783C97.0186 147.092 98.9389 150.022 101.311 150.022C103.683 150.022 105.603 147.092 105.603 144.783V143.67C105.603 143.138 105.386 142.628 105 142.253C104.614 141.877 104.09 141.666 103.544 141.666Z" fill="white" stroke="#263238" stroke-linecap="round" stroke-linejoin="round"/>
<path d="M114.26 141.666H109.799C109.253 141.666 108.729 141.877 108.343 142.253C107.957 142.628 107.74 143.138 107.74 143.67V144.783C107.74 147.092 109.661 150.022 112.026 150.022C114.392 150.022 116.319 147.092 116.319 144.783V143.67C116.319 143.138 116.102 142.628 115.716 142.253C115.33 141.877 114.806 141.666 114.26 141.666Z" fill="white" stroke="#263238" stroke-linecap="round" stroke-linejoin="round"/>
<path d="M124.951 141.666H120.49C119.944 141.666 119.421 141.877 119.035 142.253C118.649 142.628 118.432 143.138 118.432 143.67V144.783C118.432 147.092 120.352 150.022 122.724 150.022C125.096 150.022 127.01 147.092 127.01 144.783V143.67C127.01 143.406 126.957 143.146 126.853 142.903C126.75 142.66 126.598 142.439 126.407 142.253C126.216 142.066 125.989 141.919 125.739 141.818C125.489 141.717 125.222 141.666 124.951 141.666Z" fill="white" stroke="#263238" stroke-linecap="round" stroke-linejoin="round"/>
<path d="M135.643 141.666H131.182C130.636 141.666 130.112 141.877 129.726 142.253C129.34 142.628 129.123 143.138 129.123 143.67V144.783C129.123 147.092 131.043 150.022 133.415 150.022C135.787 150.022 137.708 147.092 137.708 144.783V143.67C137.706 143.138 137.488 142.628 137.101 142.252C136.714 141.876 136.189 141.666 135.643 141.666Z" fill="white" stroke="#263238" stroke-linecap="round" stroke-linejoin="round"/>
<path d="M146.34 141.666H141.879C141.333 141.666 140.808 141.876 140.421 142.252C140.034 142.628 139.816 143.138 139.814 143.67V144.783C139.814 147.092 141.735 150.022 144.107 150.022C146.479 150.022 148.399 147.092 148.399 144.783V143.67C148.399 143.138 148.182 142.628 147.796 142.253C147.41 141.877 146.886 141.666 146.34 141.666Z" fill="white" stroke="#263238" stroke-linecap="round" stroke-linejoin="round"/>
<path d="M157.032 141.666H152.571C152.025 141.666 151.501 141.877 151.115 142.253C150.729 142.628 150.512 143.138 150.512 143.67V144.783C150.512 147.092 152.433 150.022 154.798 150.022C157.164 150.022 159.091 147.092 159.091 144.783V143.67C159.091 143.138 158.874 142.628 158.488 142.253C158.102 141.877 157.578 141.666 157.032 141.666Z" fill="white" stroke="#263238" stroke-linecap="round" stroke-linejoin="round"/>
<path d="M167.723 141.666H163.262C162.716 141.666 162.193 141.877 161.807 142.253C161.421 142.628 161.204 143.138 161.204 143.67V144.783C161.204 147.092 163.124 150.022 165.496 150.022C167.868 150.022 169.782 147.092 169.782 144.783V143.67C169.782 143.138 169.565 142.628 169.179 142.253C168.793 141.877 168.269 141.666 167.723 141.666Z" fill="white" stroke="#263238" stroke-linecap="round" stroke-linejoin="round"/>
<path d="M178.415 141.665H173.978C173.708 141.665 173.44 141.717 173.19 141.818C172.941 141.919 172.714 142.066 172.522 142.252C172.331 142.439 172.18 142.659 172.076 142.903C171.973 143.146 171.919 143.406 171.919 143.67V144.783C171.919 147.092 173.84 150.022 176.212 150.022C178.584 150.022 180.504 147.092 180.504 144.783V143.67C180.503 143.404 180.448 143.141 180.343 142.897C180.237 142.652 180.083 142.43 179.889 142.244C179.694 142.057 179.464 141.91 179.211 141.811C178.958 141.712 178.688 141.662 178.415 141.665Z" fill="white" stroke="#263238" stroke-linecap="round" stroke-linejoin="round"/>
<path d="M189.113 141.666H184.652C184.105 141.666 183.581 141.876 183.194 142.252C182.807 142.628 182.589 143.138 182.587 143.67V144.783C182.587 147.092 184.507 150.022 186.879 150.022C189.251 150.022 191.171 147.092 191.171 144.783V143.67C191.171 143.138 190.955 142.628 190.568 142.253C190.182 141.877 189.659 141.666 189.113 141.666Z" fill="white" stroke="#263238" stroke-linecap="round" stroke-linejoin="round"/>
<path d="M199.804 141.666H195.343C194.797 141.666 194.273 141.877 193.887 142.253C193.501 142.628 193.284 143.138 193.284 143.67V144.783C193.284 147.092 195.205 150.022 197.57 150.022C199.936 150.022 201.863 147.092 201.863 144.783V143.67C201.863 143.138 201.646 142.628 201.26 142.253C200.874 141.877 200.35 141.666 199.804 141.666Z" fill="white" stroke="#263238" stroke-linecap="round" stroke-linejoin="round"/>
<path d="M210.495 141.665H206.034C205.488 141.665 204.965 141.877 204.579 142.252C204.193 142.628 203.976 143.138 203.976 143.67V144.783C203.976 147.086 205.884 150.016 208.292 150.016C210.7 150.016 212.578 147.086 212.578 144.777V143.664C212.577 143.399 212.523 143.137 212.417 142.893C212.312 142.649 212.158 142.428 211.964 142.242C211.771 142.056 211.541 141.91 211.289 141.811C211.037 141.712 210.767 141.662 210.495 141.665Z" fill="white" stroke="#263238" stroke-linecap="round" stroke-linejoin="round"/>
<path d="M92.8707 163.723H88.4099C87.8639 163.723 87.3402 163.934 86.9541 164.31C86.568 164.685 86.3511 165.195 86.3511 165.727V166.84C86.3511 169.149 88.2715 172.079 90.6433 172.079C93.0152 172.079 94.9356 169.149 94.9356 166.84V165.727C94.934 165.195 94.7157 164.685 94.3287 164.309C93.9416 163.933 93.4173 163.723 92.8707 163.723Z" fill="white" stroke="#263238" stroke-linecap="round" stroke-linejoin="round"/>
<path d="M103.544 163.723H99.0834C98.5368 163.723 98.0125 163.933 97.6255 164.309C97.2384 164.685 97.0201 165.195 97.0186 165.727V166.84C97.0186 169.149 98.9389 172.079 101.311 172.079C103.683 172.079 105.603 169.149 105.603 166.84V165.727C105.603 165.195 105.386 164.685 105 164.31C104.614 163.934 104.09 163.723 103.544 163.723Z" fill="white" stroke="#263238" stroke-linecap="round" stroke-linejoin="round"/>
<path d="M114.26 163.723H109.799C109.253 163.723 108.729 163.934 108.343 164.31C107.957 164.685 107.74 165.195 107.74 165.727V166.84C107.74 169.149 109.661 172.079 112.026 172.079C114.392 172.079 116.319 169.149 116.319 166.84V165.727C116.319 165.195 116.102 164.685 115.716 164.31C115.33 163.934 114.806 163.723 114.26 163.723Z" fill="white" stroke="#263238" stroke-linecap="round" stroke-linejoin="round"/>
<path d="M124.951 163.723H120.49C119.944 163.723 119.421 163.934 119.035 164.31C118.649 164.685 118.432 165.195 118.432 165.727V166.84C118.432 169.149 120.352 172.079 122.724 172.079C125.096 172.079 127.01 169.149 127.01 166.84V165.727C127.01 165.463 126.957 165.203 126.853 164.96C126.75 164.717 126.598 164.496 126.407 164.31C126.216 164.123 125.989 163.976 125.739 163.875C125.489 163.774 125.222 163.723 124.951 163.723Z" fill="white" stroke="#263238" stroke-linecap="round" stroke-linejoin="round"/>
<path d="M135.643 163.723H131.182C130.636 163.723 130.112 163.934 129.726 164.31C129.34 164.685 129.123 165.195 129.123 165.727V166.84C129.123 169.149 131.043 172.079 133.415 172.079C135.787 172.079 137.708 169.149 137.708 166.84V165.727C137.706 165.195 137.488 164.685 137.101 164.309C136.714 163.933 136.189 163.723 135.643 163.723Z" fill="white" stroke="#263238" stroke-linecap="round" stroke-linejoin="round"/>
<path d="M146.34 163.723H141.879C141.333 163.723 140.808 163.933 140.421 164.309C140.034 164.685 139.816 165.195 139.814 165.727V166.84C139.814 169.149 141.735 172.079 144.107 172.079C146.479 172.079 148.399 169.149 148.399 166.84V165.727C148.399 165.195 148.182 164.685 147.796 164.31C147.41 163.934 146.886 163.723 146.34 163.723Z" fill="white" stroke="#263238" stroke-linecap="round" stroke-linejoin="round"/>
<path d="M157.032 163.723H152.571C152.025 163.723 151.501 163.934 151.115 164.31C150.729 164.685 150.512 165.195 150.512 165.727V166.84C150.512 169.149 152.433 172.079 154.798 172.079C157.164 172.079 159.091 169.149 159.091 166.84V165.727C159.091 165.195 158.874 164.685 158.488 164.31C158.102 163.934 157.578 163.723 157.032 163.723Z" fill="white" stroke="#263238" stroke-linecap="round" stroke-linejoin="round"/>
<path d="M167.723 163.723H163.262C162.716 163.723 162.193 163.934 161.807 164.31C161.421 164.685 161.204 165.195 161.204 165.727V166.84C161.204 169.149 163.124 172.079 165.496 172.079C167.868 172.079 169.782 169.149 169.782 166.84V165.727C169.782 165.195 169.565 164.685 169.179 164.31C168.793 163.934 168.269 163.723 167.723 163.723Z" fill="white" stroke="#263238" stroke-linecap="round" stroke-linejoin="round"/>
<path d="M178.415 163.723H173.978C173.708 163.723 173.44 163.774 173.19 163.875C172.941 163.976 172.714 164.123 172.522 164.31C172.331 164.496 172.18 164.717 172.076 164.96C171.973 165.203 171.919 165.463 171.919 165.727V166.84C171.919 169.149 173.84 172.079 176.212 172.079C178.584 172.079 180.504 169.149 180.504 166.84V165.727C180.503 165.461 180.448 165.199 180.343 164.954C180.237 164.709 180.083 164.487 179.889 164.301C179.694 164.115 179.464 163.967 179.211 163.868C178.958 163.769 178.688 163.719 178.415 163.723Z" fill="white" stroke="#263238" stroke-linecap="round" stroke-linejoin="round"/>
<path d="M189.113 163.723H184.652C184.105 163.723 183.581 163.933 183.194 164.309C182.807 164.685 182.589 165.195 182.587 165.727V166.84C182.587 169.149 184.507 172.079 186.879 172.079C189.251 172.079 191.171 169.149 191.171 166.84V165.727C191.171 165.195 190.955 164.685 190.568 164.31C190.182 163.934 189.659 163.723 189.113 163.723Z" fill="white" stroke="#263238" stroke-linecap="round" stroke-linejoin="round"/>
<path d="M199.804 163.723H195.343C194.797 163.723 194.273 163.934 193.887 164.31C193.501 164.685 193.284 165.195 193.284 165.727V166.84C193.284 169.149 195.205 172.079 197.57 172.079C199.936 172.079 201.863 169.149 201.863 166.84V165.727C201.863 165.195 201.646 164.685 201.26 164.31C200.874 163.934 200.35 163.723 199.804 163.723Z" fill="white" stroke="#263238" stroke-linecap="round" stroke-linejoin="round"/>
<path d="M210.495 163.723H206.034C205.488 163.723 204.965 163.934 204.579 164.31C204.193 164.685 203.976 165.195 203.976 165.727V166.84C203.976 169.149 205.896 172.079 208.268 172.079C210.64 172.079 212.554 169.149 212.554 166.84V165.727C212.554 165.195 212.337 164.685 211.951 164.31C211.565 163.934 211.041 163.723 210.495 163.723Z" fill="white" stroke="#263238" stroke-linecap="round" stroke-linejoin="round"/>
<path d="M87.5247 153.051H83.0759C82.5299 153.051 82.0062 153.263 81.6201 153.638C81.234 154.014 81.0171 154.524 81.0171 155.056V156.169C81.0171 158.472 82.9375 161.408 85.3094 161.408C87.6812 161.408 89.5956 158.478 89.5956 156.169V155.056C89.5956 154.791 89.5419 154.53 89.4377 154.286C89.3335 154.042 89.1808 153.821 88.9883 153.634C88.7959 153.448 88.5675 153.301 88.3163 153.201C88.0651 153.101 87.7961 153.05 87.5247 153.051Z" fill="white" stroke="#263238" stroke-linecap="round" stroke-linejoin="round"/>
<path d="M98.2164 153.051H93.7556C93.2096 153.051 92.6859 153.263 92.2998 153.638C91.9137 154.014 91.6968 154.524 91.6968 155.056V156.169C91.6968 158.472 93.6172 161.408 95.989 161.408C98.3609 161.408 100.281 158.478 100.281 156.169V155.056C100.28 154.523 100.061 154.014 99.6744 153.638C99.2873 153.262 98.763 153.051 98.2164 153.051Z" fill="white" stroke="#263238" stroke-linecap="round" stroke-linejoin="round"/>
<path d="M108.914 153.051H104.453C103.906 153.051 103.382 153.262 102.995 153.638C102.608 154.014 102.39 154.523 102.388 155.056V156.169C102.388 158.472 104.315 161.408 106.68 161.408C109.046 161.408 110.973 158.478 110.973 156.169V155.056C110.973 154.524 110.756 154.014 110.37 153.638C109.984 153.263 109.46 153.051 108.914 153.051Z" fill="white" stroke="#263238" stroke-linecap="round" stroke-linejoin="round"/>
<path d="M119.606 153.051H115.145C114.599 153.051 114.075 153.263 113.689 153.638C113.303 154.014 113.086 154.524 113.086 155.056V156.169C113.086 158.472 115.006 161.408 117.372 161.408C119.738 161.408 121.664 158.478 121.664 156.169V155.056C121.664 154.792 121.611 154.532 121.508 154.289C121.404 154.045 121.253 153.824 121.061 153.638C120.87 153.452 120.643 153.305 120.393 153.204C120.144 153.103 119.876 153.051 119.606 153.051Z" fill="white" stroke="#263238" stroke-linecap="round" stroke-linejoin="round"/>
<path d="M130.297 153.051H125.818C125.272 153.051 124.748 153.263 124.362 153.638C123.976 154.014 123.759 154.524 123.759 155.056V156.169C123.759 158.472 125.68 161.408 128.052 161.408C130.423 161.408 132.338 158.478 132.338 156.169V155.056C132.338 154.527 132.123 154.02 131.741 153.645C131.359 153.269 130.84 153.056 130.297 153.051Z" fill="white" stroke="#263238" stroke-linecap="round" stroke-linejoin="round"/>
<path d="M140.988 153.051H136.528C135.982 153.051 135.458 153.263 135.072 153.638C134.686 154.014 134.469 154.524 134.469 155.056V156.169C134.469 158.472 136.389 161.408 138.761 161.408C141.133 161.408 143.053 158.478 143.053 156.169V155.056C143.052 154.523 142.833 154.014 142.446 153.638C142.059 153.262 141.535 153.051 140.988 153.051Z" fill="white" stroke="#263238" stroke-linecap="round" stroke-linejoin="round"/>
<path d="M151.704 153.051H147.243C146.696 153.051 146.172 153.262 145.785 153.638C145.398 154.014 145.18 154.523 145.178 155.056V156.169C145.178 158.472 147.105 161.408 149.47 161.408C151.836 161.408 153.763 158.478 153.763 156.169V155.056C153.763 154.524 153.546 154.014 153.16 153.638C152.774 153.263 152.25 153.051 151.704 153.051Z" fill="white" stroke="#263238" stroke-linecap="round" stroke-linejoin="round"/>
<path d="M162.378 153.051H157.917C157.371 153.051 156.847 153.263 156.461 153.638C156.075 154.014 155.858 154.524 155.858 155.056V156.169C155.858 158.472 157.778 161.408 160.144 161.408C162.51 161.408 164.436 158.478 164.436 156.169V155.056C164.436 154.524 164.22 154.014 163.833 153.638C163.447 153.263 162.924 153.051 162.378 153.051Z" fill="white" stroke="#263238" stroke-linecap="round" stroke-linejoin="round"/>
<path d="M173.069 153.051H168.608C168.062 153.051 167.538 153.263 167.152 153.638C166.766 154.014 166.549 154.524 166.549 155.056V156.169C166.549 158.472 168.47 161.408 170.842 161.408C173.213 161.408 175.128 158.478 175.128 156.169V155.056C175.128 154.524 174.911 154.014 174.525 153.638C174.139 153.263 173.615 153.051 173.069 153.051Z" fill="white" stroke="#263238" stroke-linecap="round" stroke-linejoin="round"/>
<path d="M183.76 153.051H179.3C178.754 153.051 178.23 153.263 177.844 153.638C177.458 154.014 177.241 154.524 177.241 155.056V156.169C177.241 158.472 179.161 161.408 181.533 161.408C183.905 161.408 185.825 158.478 185.825 156.169V155.056C185.824 154.523 185.605 154.014 185.218 153.638C184.831 153.262 184.307 153.051 183.76 153.051Z" fill="white" stroke="#263238" stroke-linecap="round" stroke-linejoin="round"/>
<path d="M194.446 153.051H189.985C189.439 153.051 188.914 153.262 188.527 153.638C188.14 154.014 187.922 154.523 187.92 155.056V156.169C187.92 158.472 189.847 161.408 192.213 161.408C194.579 161.408 196.505 158.478 196.505 156.169V155.056C196.505 154.524 196.288 154.014 195.902 153.638C195.516 153.263 194.992 153.051 194.446 153.051Z" fill="white" stroke="#263238" stroke-linecap="round" stroke-linejoin="round"/>
<path d="M205.15 153.051H200.689C200.148 153.059 199.632 153.274 199.252 153.649C198.873 154.024 198.66 154.529 198.66 155.056V156.169C198.66 158.472 200.581 161.408 202.946 161.408C205.312 161.408 207.239 158.478 207.239 156.169V155.056C207.239 154.79 207.184 154.527 207.079 154.282C206.974 154.037 206.819 153.815 206.625 153.628C206.431 153.442 206.2 153.295 205.947 153.196C205.694 153.097 205.423 153.048 205.15 153.051Z" fill="white" stroke="#263238" stroke-linecap="round" stroke-linejoin="round"/>
<path d="M215.841 153.051H211.38C210.834 153.051 210.31 153.263 209.924 153.638C209.538 154.014 209.321 154.524 209.321 155.056V156.169C209.321 158.472 211.242 161.408 213.614 161.408C215.985 161.408 217.9 158.478 217.9 156.169V155.056C217.9 154.524 217.683 154.014 217.297 153.638C216.911 153.263 216.387 153.051 215.841 153.051Z" fill="white" stroke="#263238" stroke-linecap="round" stroke-linejoin="round"/>
<path d="M190.292 174.833H108.613C107.546 174.833 106.681 175.675 106.681 176.714V182.422C106.681 183.461 107.546 184.303 108.613 184.303H190.292C191.36 184.303 192.225 183.461 192.225 182.422V176.714C192.225 175.675 191.36 174.833 190.292 174.833Z" fill="white" stroke="#263238" stroke-linecap="round" stroke-linejoin="round"/>
<path d="M201.231 175.39H196.77C196.224 175.39 195.7 175.601 195.314 175.977C194.928 176.353 194.711 176.862 194.711 177.394V178.507C194.711 180.816 196.631 183.746 199.003 183.746C201.375 183.746 203.289 180.816 203.289 178.507V177.394C203.289 176.862 203.073 176.353 202.686 175.977C202.3 175.601 201.777 175.39 201.231 175.39Z" fill="white" stroke="#263238" stroke-linecap="round" stroke-linejoin="round"/>
<path d="M102.135 175.39H97.6746C97.1285 175.39 96.6049 175.601 96.2187 175.977C95.8326 176.353 95.6157 176.862 95.6157 177.394V178.507C95.6157 180.816 97.5361 183.746 99.908 183.746C102.28 183.746 104.2 180.816 104.2 178.507V177.394C104.199 176.862 103.98 176.352 103.593 175.976C103.206 175.601 102.682 175.39 102.135 175.39Z" fill="white" stroke="#263238" stroke-linecap="round" stroke-linejoin="round"/>
<path opacity="0.2" d="M93.1173 144.847C93.3334 144.848 93.549 144.868 93.7615 144.906C93.7615 144.865 93.7615 144.824 93.7615 144.783V143.67C93.7599 143.439 93.6647 143.218 93.4966 143.056C93.3286 142.893 93.1013 142.802 92.8645 142.802H88.4037C88.1679 142.804 87.9421 142.896 87.7754 143.058C87.6087 143.22 87.5143 143.44 87.5127 143.67V144.783C87.5127 146.383 88.7167 148.399 90.1374 148.803C89.698 147.027 90.6852 144.847 93.1173 144.847Z" fill="black"/>
<path opacity="0.2" d="M104.05 144.549C104.186 144.539 104.323 144.539 104.459 144.549V143.646C104.458 143.417 104.363 143.197 104.197 143.035C104.03 142.872 103.804 142.78 103.568 142.779H99.1074C98.8706 142.779 98.6433 142.87 98.4753 143.032C98.3072 143.195 98.212 143.416 98.2104 143.646V144.759C98.2104 146.517 99.6372 148.715 101.22 148.861C100.492 147.045 101.449 144.549 104.05 144.549Z" fill="black"/>
<path opacity="0.2" d="M115.06 144.396H115.151V143.664C115.151 143.434 115.057 143.213 114.89 143.05C114.723 142.888 114.496 142.796 114.26 142.796H109.799C109.562 142.796 109.335 142.888 109.167 143.05C108.999 143.213 108.903 143.433 108.902 143.664V144.777C108.902 146.564 110.419 148.879 112.026 148.879C112.104 148.885 112.183 148.885 112.261 148.879C111.454 147.027 112.387 144.396 115.06 144.396Z" fill="black"/>
<path opacity="0.2" d="M125.071 144.097C125.322 144.09 125.572 144.11 125.818 144.156V143.646C125.818 143.416 125.724 143.195 125.557 143.033C125.39 142.87 125.163 142.779 124.927 142.779H120.466C120.23 142.779 120.003 142.87 119.836 143.033C119.669 143.195 119.575 143.416 119.575 143.646V144.759C119.575 146.435 120.9 148.568 122.393 148.861C121.369 147.021 122.254 144.097 125.071 144.097Z" fill="black"/>
<path opacity="0.2" d="M136.311 144.097H136.54V143.658C136.538 143.427 136.443 143.207 136.275 143.044C136.107 142.882 135.88 142.791 135.643 142.791H131.182C130.946 142.792 130.72 142.884 130.554 143.046C130.387 143.209 130.293 143.428 130.291 143.658V144.771C130.291 146.559 131.808 148.873 133.415 148.873C133.498 148.879 133.58 148.879 133.662 148.873C132.609 147.027 133.494 144.097 136.311 144.097Z" fill="black"/>
<path opacity="0.2" d="M147.093 144.156H147.231V143.646C147.23 143.417 147.135 143.197 146.968 143.035C146.802 142.872 146.576 142.78 146.34 142.779H141.879C141.643 142.779 141.415 142.87 141.247 143.032C141.079 143.195 140.984 143.416 140.982 143.646V144.759C140.982 146.547 142.499 148.861 144.107 148.861C144.205 148.87 144.304 148.87 144.402 148.861C143.414 147.016 144.311 144.156 147.093 144.156Z" fill="black"/>
<path opacity="0.2" d="M157.411 144.097C157.582 144.1 157.753 144.111 157.923 144.132V143.67C157.923 143.44 157.829 143.219 157.662 143.056C157.495 142.894 157.268 142.802 157.032 142.802H152.571C152.335 142.802 152.108 142.894 151.941 143.056C151.774 143.219 151.68 143.44 151.68 143.67V144.783C151.68 146.541 153.173 148.85 154.768 148.885C153.703 147.045 154.582 144.097 157.411 144.097Z" fill="black"/>
<path opacity="0.2" d="M168.614 144.25V143.664C168.614 143.434 168.52 143.213 168.353 143.05C168.186 142.888 167.96 142.796 167.723 142.796H163.263C163.026 142.796 162.8 142.888 162.633 143.05C162.465 143.213 162.372 143.434 162.372 143.664V144.777C162.372 146.564 163.883 148.879 165.496 148.879C165.657 148.877 165.818 148.851 165.972 148.803C165.105 146.998 165.99 144.332 168.614 144.25Z" fill="black"/>
<path opacity="0.2" d="M178.433 144.021C178.729 144.02 179.025 144.058 179.312 144.132V143.67C179.31 143.439 179.215 143.218 179.047 143.056C178.879 142.893 178.651 142.802 178.415 142.802H173.978C173.742 142.804 173.516 142.896 173.35 143.058C173.183 143.22 173.088 143.44 173.087 143.67V144.783C173.087 146.435 174.375 148.522 175.838 148.838C174.712 147.004 175.585 144.021 178.433 144.021Z" fill="black"/>
<path opacity="0.2" d="M189.365 144.021C189.579 144.022 189.793 144.041 190.003 144.08V143.67C190.002 143.44 189.907 143.22 189.74 143.058C189.574 142.896 189.348 142.804 189.112 142.802H184.651C184.415 142.802 184.187 142.893 184.019 143.056C183.851 143.218 183.756 143.439 183.754 143.67V144.783C183.754 146.541 185.199 148.774 186.764 148.885C185.633 147.045 186.5 144.021 189.365 144.021Z" fill="black"/>
<path opacity="0.2" d="M200.225 144.32C200.382 144.322 200.539 144.334 200.695 144.355V143.67C200.695 143.44 200.601 143.219 200.434 143.056C200.267 142.894 200.04 142.802 199.804 142.802H195.343C195.226 142.802 195.11 142.825 195.002 142.868C194.894 142.912 194.796 142.976 194.713 143.056C194.63 143.137 194.565 143.232 194.52 143.338C194.475 143.443 194.452 143.556 194.452 143.67V144.783C194.452 146.541 195.897 148.768 197.462 148.885C196.589 147.033 197.51 144.32 200.225 144.32Z" fill="black"/>
<path opacity="0.2" d="M211.386 144.185V143.67C211.386 143.44 211.292 143.219 211.125 143.056C210.958 142.894 210.732 142.802 210.495 142.802H206.035C205.798 142.802 205.572 142.894 205.405 143.056C205.237 143.219 205.144 143.44 205.144 143.67V144.783C205.144 146.57 206.655 148.885 208.268 148.885C208.5 148.882 208.729 148.834 208.942 148.744C208.087 146.975 208.894 144.384 211.386 144.185Z" fill="black"/>
<path opacity="0.2" d="M93.4247 165.838C93.539 165.832 93.6535 165.832 93.7678 165.838V165.715C93.7662 165.484 93.671 165.264 93.503 165.101C93.3349 164.939 93.1077 164.848 92.8708 164.848H88.41C88.1742 164.849 87.9485 164.941 87.7817 165.103C87.615 165.266 87.5206 165.485 87.519 165.715V166.828C87.519 168.616 89.0361 170.93 90.6434 170.93C90.7546 170.928 90.8654 170.916 90.9745 170.895C89.626 169.114 90.4448 165.838 93.4247 165.838Z" fill="black"/>
<path opacity="0.2" d="M103.899 165.838C104.087 165.839 104.274 165.854 104.459 165.885V165.733C104.458 165.503 104.363 165.283 104.197 165.121C104.03 164.959 103.804 164.867 103.568 164.865H99.1074C98.8706 164.865 98.6433 164.956 98.4753 165.119C98.3072 165.281 98.212 165.502 98.2104 165.733V166.846C98.2104 168.633 99.7275 170.948 101.335 170.948H101.467C100.089 169.143 100.901 165.838 103.899 165.838Z" fill="black"/>
<path opacity="0.2" d="M114.525 165.985C114.727 165.985 114.928 166.003 115.127 166.037V165.727C115.127 165.613 115.104 165.5 115.059 165.395C115.014 165.29 114.948 165.194 114.866 165.113C114.783 165.033 114.685 164.969 114.577 164.925C114.469 164.882 114.353 164.859 114.236 164.859H109.775C109.538 164.859 109.311 164.951 109.143 165.113C108.975 165.276 108.88 165.496 108.878 165.727V166.84C108.878 168.598 110.371 170.901 111.966 170.942C110.768 169.12 111.605 165.985 114.525 165.985Z" fill="black"/>
<path opacity="0.2" d="M125.379 166.061C125.534 166.061 125.689 166.071 125.842 166.09V165.727C125.842 165.613 125.819 165.5 125.775 165.395C125.73 165.29 125.664 165.194 125.581 165.113C125.499 165.033 125.4 164.969 125.292 164.925C125.184 164.882 125.068 164.859 124.951 164.859H120.491C120.374 164.859 120.258 164.882 120.15 164.925C120.042 164.969 119.943 165.033 119.861 165.113C119.778 165.194 119.712 165.29 119.667 165.395C119.623 165.5 119.6 165.613 119.6 165.727V166.84C119.6 168.627 121.111 170.942 122.724 170.942H122.796C121.64 169.108 122.501 166.061 125.379 166.061Z" fill="black"/>
<path opacity="0.2" d="M135.853 165.838C136.084 165.838 136.314 165.86 136.54 165.902V165.733C136.538 165.502 136.443 165.281 136.275 165.119C136.107 164.956 135.88 164.865 135.643 164.865H131.182C130.946 164.867 130.72 164.959 130.554 165.121C130.387 165.283 130.293 165.503 130.291 165.733V166.846C130.291 168.633 131.808 170.948 133.415 170.948C132.043 169.155 132.85 165.838 135.853 165.838Z" fill="black"/>
<path opacity="0.2" d="M146.707 165.908C146.883 165.91 147.058 165.923 147.231 165.949V165.727C147.23 165.497 147.135 165.277 146.968 165.115C146.802 164.953 146.576 164.861 146.34 164.859H141.879C141.643 164.859 141.415 164.951 141.247 165.113C141.079 165.276 140.984 165.496 140.982 165.727V166.84C140.982 168.627 142.499 170.942 144.107 170.942H144.221C142.921 169.125 143.752 165.908 146.707 165.908Z" fill="black"/>
<path opacity="0.2" d="M157.796 166.131H157.923V165.721C157.923 165.491 157.829 165.27 157.662 165.108C157.495 164.945 157.268 164.854 157.032 164.854H152.571C152.335 164.854 152.108 164.945 151.941 165.108C151.774 165.27 151.68 165.491 151.68 165.721V166.834C151.68 168.621 153.191 170.936 154.799 170.936C154.916 170.934 155.033 170.921 155.148 170.895C154.112 169.067 154.973 166.131 157.796 166.131Z" fill="black"/>
<path opacity="0.2" d="M168.56 165.908H168.596V165.727C168.596 165.613 168.573 165.5 168.528 165.395C168.484 165.29 168.418 165.194 168.335 165.113C168.253 165.033 168.154 164.969 168.046 164.925C167.938 164.882 167.822 164.859 167.705 164.859H163.263C163.146 164.859 163.03 164.882 162.922 164.925C162.813 164.969 162.715 165.033 162.633 165.113C162.55 165.194 162.484 165.29 162.439 165.395C162.395 165.5 162.372 165.613 162.372 165.727V166.84C162.372 168.627 163.883 170.942 165.496 170.942C165.681 170.939 165.864 170.908 166.038 170.848C164.816 169.032 165.665 165.908 168.56 165.908Z" fill="black"/>
<path opacity="0.2" d="M178.968 165.686H179.306C179.296 165.461 179.199 165.249 179.033 165.093C178.867 164.937 178.645 164.849 178.415 164.848H173.978C173.742 164.849 173.516 164.941 173.35 165.103C173.183 165.266 173.088 165.485 173.087 165.715V166.828C173.087 168.616 174.604 170.93 176.211 170.93C176.358 170.926 176.503 170.904 176.645 170.866C175.134 169.12 175.916 165.686 178.968 165.686Z" fill="black"/>
<path opacity="0.2" d="M189.985 165.838V165.733C189.984 165.503 189.889 165.283 189.722 165.121C189.556 164.959 189.33 164.867 189.094 164.865H184.633C184.396 164.865 184.169 164.956 184.001 165.119C183.833 165.281 183.738 165.502 183.736 165.733V166.846C183.736 168.633 185.253 170.948 186.861 170.948C187.066 170.945 187.269 170.909 187.463 170.842C186.205 169.026 187.035 165.838 189.985 165.838Z" fill="black"/>
<path opacity="0.2" d="M200.466 165.838H200.707V165.721C200.707 165.607 200.684 165.494 200.639 165.389C200.595 165.284 200.529 165.188 200.446 165.108C200.363 165.027 200.265 164.963 200.157 164.92C200.049 164.876 199.933 164.854 199.816 164.854H195.355C195.119 164.854 194.892 164.945 194.725 165.108C194.558 165.27 194.464 165.491 194.464 165.721V166.834C194.464 168.621 195.975 170.936 197.583 170.936C197.725 170.934 197.867 170.915 198.004 170.878C196.662 169.084 197.486 165.838 200.466 165.838Z" fill="black"/>
<path opacity="0.2" d="M211.001 166.283C211.133 166.283 211.266 166.283 211.386 166.283V165.697C211.386 165.467 211.292 165.247 211.125 165.084C210.958 164.921 210.732 164.83 210.495 164.83H206.035C205.798 164.83 205.572 164.921 205.405 165.084C205.237 165.247 205.144 165.467 205.144 165.697V166.811C205.144 168.598 206.655 170.913 208.268 170.913C207.335 169.096 208.238 166.283 211.001 166.283Z" fill="black"/>
<path opacity="0.2" d="M88.3435 155.343H88.4218V155.056C88.4202 154.825 88.325 154.604 88.1569 154.442C87.9889 154.279 87.7617 154.188 87.5248 154.188H83.076C82.8397 154.188 82.6131 154.28 82.446 154.442C82.2789 154.605 82.1851 154.826 82.1851 155.056V156.169C82.1851 157.956 83.6961 160.271 85.3094 160.271C85.4645 160.267 85.6183 160.244 85.767 160.201C84.6111 158.372 85.484 155.343 88.3435 155.343Z" fill="black"/>
<path opacity="0.2" d="M98.8125 155.343H99.1135V155.044C99.1119 154.813 99.0167 154.593 98.8487 154.43C98.6806 154.268 98.4534 154.177 98.2165 154.177H93.7557C93.5199 154.178 93.2942 154.27 93.1275 154.432C92.9607 154.595 92.8663 154.814 92.8647 155.044V156.157C92.8647 157.944 94.3818 160.259 95.9891 160.259C96.0773 160.265 96.1658 160.265 96.254 160.259C95.0681 158.425 95.9229 155.343 98.8125 155.343Z" fill="black"/>
<path opacity="0.2" d="M109.751 155.343H109.805V155.056C109.803 154.826 109.709 154.606 109.542 154.444C109.375 154.282 109.15 154.19 108.914 154.188H104.453C104.335 154.187 104.217 154.208 104.107 154.251C103.998 154.294 103.898 154.357 103.813 154.438C103.729 154.518 103.661 154.615 103.615 154.721C103.569 154.827 103.545 154.94 103.544 155.056V156.169C103.544 157.956 105.061 160.271 106.668 160.271C106.83 160.269 106.99 160.243 107.144 160.195C106.018 158.372 106.879 155.343 109.751 155.343Z" fill="black"/>
<path opacity="0.2" d="M120.22 155.29H120.497V155.067C120.497 154.837 120.403 154.617 120.236 154.454C120.069 154.291 119.842 154.2 119.606 154.2H115.145C114.909 154.2 114.682 154.291 114.515 154.454C114.348 154.617 114.254 154.837 114.254 155.067V156.181C114.254 157.968 115.765 160.283 117.372 160.283C117.481 160.28 117.59 160.269 117.697 160.248C116.451 158.425 117.294 155.29 120.22 155.29Z" fill="black"/>
<path opacity="0.2" d="M130.634 155.343C130.826 155.343 131.017 155.358 131.206 155.39V155.056C131.206 154.826 131.112 154.605 130.945 154.442C130.778 154.28 130.551 154.188 130.315 154.188H125.818C125.582 154.188 125.355 154.28 125.188 154.442C125.021 154.605 124.927 154.826 124.927 155.056V156.169C124.927 157.956 126.438 160.271 128.052 160.271C126.86 158.448 127.708 155.343 130.634 155.343Z" fill="black"/>
<path opacity="0.2" d="M141.398 154.968C141.559 154.968 141.72 154.978 141.879 154.997C141.863 154.778 141.762 154.573 141.597 154.423C141.431 154.273 141.214 154.189 140.988 154.188H136.528C136.292 154.19 136.066 154.282 135.899 154.444C135.733 154.606 135.638 154.826 135.637 155.056V156.169C135.637 157.956 137.154 160.271 138.761 160.271C138.877 160.269 138.992 160.255 139.104 160.23C137.539 158.489 138.304 154.968 141.398 154.968Z" fill="black"/>
<path opacity="0.2" d="M152.174 155.413C152.312 155.413 152.45 155.413 152.577 155.413V155.032C152.575 154.803 152.481 154.583 152.314 154.421C152.147 154.258 151.922 154.166 151.686 154.165H147.225C146.988 154.165 146.761 154.256 146.593 154.418C146.425 154.581 146.33 154.802 146.328 155.032V156.145C146.328 157.933 147.845 160.247 149.452 160.247H149.573C148.447 158.431 149.296 155.413 152.174 155.413Z" fill="black"/>
<path opacity="0.2" d="M163.269 155.056C163.269 154.826 163.175 154.605 163.008 154.442C162.841 154.28 162.614 154.188 162.378 154.188H157.917C157.8 154.188 157.684 154.211 157.576 154.254C157.468 154.298 157.37 154.362 157.287 154.442C157.204 154.523 157.138 154.618 157.094 154.724C157.049 154.829 157.026 154.942 157.026 155.056V156.169C157.026 157.956 158.537 160.271 160.144 160.271C160.465 160.263 160.78 160.179 161.059 160.025C159.843 158.279 160.578 155.29 163.269 155.056Z" fill="black"/>
<path opacity="0.2" d="M173.978 155.29V155.067C173.978 154.837 173.884 154.617 173.717 154.454C173.55 154.291 173.323 154.2 173.087 154.2H168.626C168.39 154.2 168.163 154.291 167.996 154.454C167.829 154.617 167.735 154.837 167.735 155.067V156.181C167.735 157.968 169.246 160.283 170.86 160.283C171.118 160.279 171.373 160.221 171.606 160.113C170.505 158.325 171.293 155.437 173.978 155.29Z" fill="black"/>
<path opacity="0.2" d="M184.284 155.114C184.411 155.114 184.537 155.114 184.657 155.114V155.038C184.656 154.807 184.561 154.587 184.393 154.424C184.225 154.262 183.997 154.171 183.76 154.171H179.3C179.064 154.172 178.838 154.264 178.671 154.426C178.505 154.589 178.41 154.808 178.409 155.038V156.151C178.409 157.939 179.926 160.253 181.533 160.253C181.647 160.252 181.76 160.238 181.87 160.212C180.474 158.448 181.274 155.114 184.284 155.114Z" fill="black"/>
<path opacity="0.2" d="M195.349 155.495V155.056C195.348 154.826 195.253 154.606 195.087 154.444C194.92 154.282 194.694 154.19 194.458 154.188H189.998C189.761 154.188 189.533 154.279 189.365 154.442C189.197 154.604 189.102 154.825 189.101 155.056V156.169C189.101 157.956 190.618 160.271 192.225 160.271C192.407 160.268 192.588 160.238 192.761 160.183C191.779 158.366 192.64 155.565 195.349 155.495Z" fill="black"/>
<path opacity="0.2" d="M205.535 155.19C205.704 155.193 205.873 155.204 206.041 155.225V155.056C206.041 154.825 205.947 154.605 205.78 154.442C205.613 154.28 205.386 154.188 205.15 154.188H200.689C200.572 154.188 200.456 154.211 200.348 154.254C200.24 154.298 200.142 154.362 200.059 154.442C199.976 154.523 199.91 154.618 199.866 154.724C199.821 154.829 199.798 154.942 199.798 155.056V156.169C199.798 157.956 201.309 160.271 202.916 160.271C202.972 160.274 203.029 160.274 203.085 160.271C201.736 158.46 202.555 155.19 205.535 155.19Z" fill="black"/>
<path opacity="0.2" d="M216.317 155.642C216.455 155.632 216.594 155.632 216.732 155.642V155.056C216.732 154.826 216.638 154.605 216.471 154.442C216.304 154.28 216.077 154.188 215.841 154.188H211.38C211.144 154.188 210.917 154.28 210.75 154.442C210.583 154.605 210.489 154.826 210.489 155.056V156.169C210.489 157.927 211.988 160.271 213.596 160.271C212.656 158.425 213.565 155.642 216.317 155.642Z" fill="black"/>
<path opacity="0.2" d="M191.057 182.457V176.679C191.057 176.287 190.731 175.97 190.328 175.97H108.577C108.174 175.97 107.848 176.287 107.848 176.679V182.457C107.848 182.849 108.174 183.166 108.577 183.166H190.328C190.731 183.166 191.057 182.849 191.057 182.457Z" fill="black"/>
<path opacity="0.2" d="M202.122 177.974V177.388C202.122 177.274 202.099 177.161 202.054 177.056C202.009 176.951 201.943 176.855 201.861 176.775C201.778 176.694 201.68 176.63 201.572 176.587C201.464 176.543 201.348 176.521 201.231 176.521H196.77C196.653 176.521 196.537 176.543 196.429 176.587C196.321 176.63 196.223 176.694 196.14 176.775C196.057 176.855 195.991 176.951 195.947 177.056C195.902 177.161 195.879 177.274 195.879 177.388V178.501C195.879 180.289 197.39 182.603 199.003 182.603C199.137 182.6 199.271 182.583 199.401 182.551C198.51 180.722 199.419 177.992 202.122 177.974Z" fill="black"/>
<path opacity="0.2" d="M102.509 177.599C102.684 177.6 102.859 177.614 103.032 177.64V177.394C103.031 177.163 102.936 176.943 102.768 176.78C102.6 176.618 102.372 176.527 102.135 176.527H97.6746C97.4388 176.528 97.2131 176.62 97.0464 176.782C96.8796 176.945 96.7853 177.164 96.7837 177.394V178.507C96.7837 180.295 98.3007 182.609 99.9081 182.609H100.01C98.7282 180.793 99.571 177.599 102.509 177.599Z" fill="black"/>
<path opacity="0.2" d="M75.6713 55.377H223.234C224.247 55.377 225.22 55.769 225.937 56.4668C226.654 57.1647 227.056 58.1112 227.056 59.0981V91.9141H71.8486V59.0981C71.8486 58.1112 72.2514 57.1647 72.9683 56.4668C73.6852 55.769 74.6575 55.377 75.6713 55.377Z" fill="black"/>
<path d="M211.17 61.5651H87.7598C86.7307 53.2459 84.917 45.0366 82.3418 37.041H216.612C213.996 45.0274 212.174 53.2398 211.17 61.5651Z" fill="white"/>
<path opacity="0.2" d="M212.386 53.6599C211.489 58.43 211.182 61.5651 211.182 61.5651H87.7717C87.7717 61.5651 87.4587 58.4886 86.5376 53.6599H212.386Z" fill="black"/>
<path d="M211.17 61.5651H87.7598C86.7307 53.2459 84.917 45.0366 82.3418 37.041H216.612C213.996 45.0274 212.174 53.2398 211.17 61.5651V61.5651Z" stroke="#263238" stroke-linecap="round" stroke-linejoin="round"/>
<path d="M209.49 82.2158H88.4219V130.701H209.49V82.2158Z" fill="#263238"/>
<g opacity="0.4">
<path opacity="0.4" d="M145.937 126.412L146.575 126.441C147.378 114.35 148.18 102.239 148.983 90.1091C147.96 102.243 146.944 114.344 145.937 126.412Z" fill="white"/>
<path opacity="0.4" d="M143.878 126.259L144.517 126.312C145.909 114.299 147.3 102.233 148.688 90.115C147.087 102.241 145.484 114.289 143.878 126.259Z" fill="white"/>
<path opacity="0.4" d="M141.874 126.037C142.084 126.037 142.301 126.084 142.512 126.107C144.486 114.223 146.473 102.224 148.471 90.1091C146.264 102.235 144.065 114.211 141.874 126.037Z" fill="white"/>
<path opacity="0.4" d="M139.845 125.738L140.489 125.838C143.049 114.118 145.63 102.202 148.231 90.0916C145.421 102.214 142.626 114.096 139.845 125.738Z" fill="white"/>
<path opacity="0.4" d="M137.822 125.369L138.472 125.498C141.603 114 144.775 102.202 147.99 90.1033C144.571 102.206 141.181 113.961 137.822 125.369Z" fill="white"/>
<path opacity="0.4" d="M135.812 124.923L136.462 125.082C140.152 113.842 143.945 102.187 147.749 90.0974C143.722 102.187 139.706 113.789 135.812 124.923Z" fill="white"/>
<path opacity="0.4" d="M133.807 124.396L134.463 124.584C138.677 113.66 143.089 102.163 147.508 90.0857C142.867 102.163 138.243 113.596 133.807 124.396Z" fill="white"/>
<path opacity="0.4" d="M131.838 123.798L132.495 124.003C137.256 113.455 142.253 102.14 147.286 90.0798C142.006 102.14 136.781 113.373 131.838 123.798Z" fill="white"/>
<path opacity="0.4" d="M129.839 123.113L130.502 123.347C135.775 113.198 141.38 102.11 147.026 90.0681C141.145 102.11 135.306 113.098 129.839 123.113Z" fill="white"/>
<path opacity="0.4" d="M127.889 122.339L128.551 122.609C134.306 112.916 140.519 102.099 146.786 90.0564C140.266 102.075 133.831 112.834 127.889 122.339Z" fill="white"/>
<path opacity="0.4" d="M125.957 121.472L126.619 121.782C132.831 112.612 139.652 102.034 146.545 90.0447C139.405 102.034 132.35 112.512 125.957 121.472Z" fill="white"/>
<path opacity="0.4" d="M124.054 120.511L124.716 120.862C131.338 112.266 138.785 101.987 146.304 90.0271C139.447 100.564 132.019 110.74 124.054 120.511Z" fill="white"/>
<path opacity="0.4" d="M122.206 119.456C122.423 119.591 122.652 119.714 122.874 119.843C131.229 110.37 138.981 100.409 146.087 90.0154C138.815 100.34 130.837 110.176 122.206 119.456Z" fill="white"/>
<path opacity="0.4" d="M120.358 118.29L121.014 118.729C130.029 109.793 138.324 100.193 145.823 90.0154C138.168 100.122 129.649 109.58 120.358 118.29Z" fill="white"/>
<path opacity="0.4" d="M145.582 89.9802C135.896 101.788 126.42 110.795 118.594 117.018L119.238 117.505C128.9 109.168 137.721 99.9509 145.582 89.9802Z" fill="white"/>
<path opacity="0.4" d="M145.341 89.9626C135.023 101.683 124.939 110.25 116.878 115.641L117.517 116.174C125.469 110.443 135.294 101.712 145.341 89.9626Z" fill="white"/>
<path opacity="0.4" d="M145.082 89.9451C134.144 101.577 123.488 109.641 115.247 114.141C115.446 114.34 115.644 114.539 115.849 114.727C124.012 109.863 134.433 101.606 145.082 89.9451Z" fill="white"/>
<path opacity="0.4" d="M144.86 89.9216C133.325 101.437 122.116 108.967 113.742 112.541L114.344 113.18C122.634 109.213 133.59 101.472 144.86 89.9216Z" fill="white"/>
<path opacity="0.4" d="M112.357 110.83C112.532 111.065 112.713 111.299 112.893 111.527C121.291 108.51 132.759 101.308 144.625 89.9041C132.518 101.255 120.803 108.222 112.357 110.83Z" fill="white"/>
<path opacity="0.4" d="M111.129 109.049C111.286 109.295 111.448 109.541 111.611 109.787C120.039 107.724 132.007 101.097 144.384 89.863C131.766 101.032 119.587 107.414 111.129 109.049Z" fill="white"/>
<path opacity="0.4" d="M110.082 107.238C110.214 107.496 110.353 107.748 110.491 108.006C118.919 106.892 131.297 100.851 144.143 89.8689C131.086 100.745 118.51 106.535 110.082 107.238Z" fill="white"/>
<path opacity="0.4" d="M109.227 105.386C109.335 105.644 109.45 105.908 109.564 106.166C117.944 105.966 130.634 100.522 143.878 89.8279C130.484 100.411 117.595 105.591 109.227 105.386Z" fill="white"/>
<path opacity="0.4" d="M147.978 126.494H148.61C148.803 114.383 149.003 102.257 149.212 90.115C148.791 102.249 148.379 114.375 147.978 126.494Z" fill="white"/>
<path opacity="0.4" d="M150.013 126.506H150.651C150.249 114.395 149.848 102.269 149.447 90.1267L150.013 126.506Z" fill="white"/>
<path opacity="0.4" d="M152.047 126.453H152.685C151.682 114.381 150.679 102.271 149.675 90.1208C150.466 102.255 151.257 114.366 152.047 126.453Z" fill="white"/>
<path opacity="0.4" d="M154.112 126.33L154.75 126.283C153.145 114.301 151.539 102.245 149.934 90.115C151.315 102.245 152.707 114.317 154.112 126.33Z" fill="white"/>
<path opacity="0.4" d="M156.117 126.142L156.755 126.066C154.572 114.225 152.364 102.239 150.133 90.1091C152.143 102.239 154.138 114.25 156.117 126.142Z" fill="white"/>
<path opacity="0.4" d="M158.145 125.879L158.789 125.785C156.02 114.123 153.221 102.232 150.392 90.1091C152.992 102.235 155.577 114.159 158.145 125.879Z" fill="white"/>
<path opacity="0.4" d="M160.168 125.545L160.813 125.427C157.47 113.996 154.076 102.222 150.633 90.1033C153.835 102.222 157.014 114.036 160.168 125.545Z" fill="white"/>
<path opacity="0.4" d="M162.179 125.134L162.835 124.988C158.934 113.854 154.913 102.21 150.874 90.0974C154.69 102.212 158.459 113.891 162.179 125.134Z" fill="white"/>
<path opacity="0.4" d="M164.19 124.654L164.84 124.472C160.397 113.649 155.768 102.204 151.114 90.0857C155.539 102.192 159.946 113.684 164.19 124.654Z" fill="white"/>
<path opacity="0.4" d="M166.182 124.085L166.844 123.874C161.866 113.432 156.61 102.192 151.355 90.0798C156.4 102.169 161.408 113.496 166.182 124.085Z" fill="white"/>
<path opacity="0.4" d="M168.163 123.435L168.825 123.195C163.347 113.18 157.495 102.146 151.596 90.0681C157.261 102.146 162.877 113.256 168.163 123.435Z" fill="white"/>
<path opacity="0.4" d="M170.125 122.702C170.348 122.609 170.577 122.527 170.793 122.433C164.834 112.905 158.368 102.116 151.836 90.0564C158.127 102.116 164.346 112.987 170.125 122.702Z" fill="white"/>
<path opacity="0.4" d="M172.07 121.888L172.738 121.577C166.327 112.594 159.241 102.087 152.078 90.0505C158.995 102.075 165.833 112.688 172.07 121.888Z" fill="white"/>
<path opacity="0.4" d="M173.978 120.968C174.201 120.857 174.424 120.733 174.64 120.616C166.646 110.811 159.191 100.6 152.306 90.0271C159.867 102.04 167.356 112.348 173.978 120.968Z" fill="white"/>
<path opacity="0.4" d="M175.869 119.954L176.543 119.567C167.875 110.253 159.862 100.38 152.559 90.0154C159.692 100.45 167.476 110.448 175.869 119.954Z" fill="white"/>
<path opacity="0.4" d="M152.8 89.9978C160.329 100.223 168.659 109.866 177.717 118.841L178.385 118.401C169.047 109.654 160.488 100.153 152.8 89.9978Z" fill="white"/>
<path opacity="0.4" d="M153.041 89.9802C160.938 99.9988 169.808 109.253 179.529 117.616C179.751 117.458 179.962 117.294 180.179 117.13C172.329 110.906 162.781 101.858 153.041 89.9802Z" fill="white"/>
<path opacity="0.4" d="M153.281 89.9626C163.395 101.782 173.28 110.549 181.256 116.28C181.473 116.104 181.696 115.928 181.906 115.747C173.815 110.367 163.666 101.776 153.281 89.9626Z" fill="white"/>
<path opacity="0.4" d="M153.51 89.9451C164.256 101.665 174.731 109.98 182.918 114.838C183.129 114.645 183.327 114.44 183.52 114.252C175.273 109.758 164.539 101.665 153.51 89.9451Z" fill="white"/>
<path opacity="0.4" d="M153.763 89.9216C165.123 101.56 176.164 109.336 184.465 113.274L185.067 112.629C176.693 109.096 165.394 101.536 153.763 89.9216Z" fill="white"/>
<path opacity="0.4" d="M185.952 111.609C186.139 111.375 186.313 111.141 186.494 110.9C178.036 108.351 166.212 101.36 153.986 89.9041C165.954 101.407 177.536 108.633 185.952 111.609Z" fill="white"/>
<path opacity="0.4" d="M187.258 109.846L187.752 109.096C179.282 107.543 166.989 101.144 154.239 89.8806C166.754 101.208 178.794 107.853 187.258 109.846Z" fill="white"/>
<path opacity="0.4" d="M188.426 108.023C188.571 107.765 188.709 107.507 188.848 107.244C180.42 106.658 167.711 100.862 154.534 89.8572C167.465 100.956 179.998 107.009 188.426 108.023Z" fill="white"/>
<path opacity="0.4" d="M154.714 89.8279C168.103 100.645 180.962 106.089 189.329 106.171C189.45 105.908 189.564 105.644 189.679 105.38C181.323 105.714 168.295 100.528 154.714 89.8279Z" fill="white"/>
</g>
<path opacity="0.2" d="M131.838 90.9882C129.557 96.6841 132.025 113.256 148.489 113.256C164.954 113.256 170.932 101.612 170.264 94.4163L192.243 90.9706C192.243 90.9706 198.979 109.09 184.676 121.765C170.372 134.44 120.791 133.62 110.311 123.986C99.8298 114.352 105.645 95.3187 105.645 95.3187L131.838 90.9882Z" fill="black"/>
<path d="M228.303 66.4114V62.4148C228.302 62.267 228.351 62.1229 228.441 62.0037C228.531 61.8845 228.657 61.7965 228.802 61.7527L231.812 60.8385V56.842C231.812 56.3633 232.008 55.9042 232.355 55.5657C232.703 55.2273 233.175 55.0371 233.667 55.0371H237.279C237.457 55.0338 237.629 55.098 237.759 55.2161C237.889 55.3342 237.968 55.4969 237.977 55.67V56.9592C237.977 57.1354 237.905 57.3044 237.778 57.4295C237.651 57.5546 237.478 57.6257 237.297 57.6272H232.703V61.5358C232.701 61.6537 232.669 61.7691 232.609 61.8715C232.549 61.9739 232.463 62.06 232.36 62.1218L229.796 63.6337V66.4172L228.303 66.4114Z" fill="#999999" stroke="#263238" stroke-linecap="round" stroke-linejoin="round"/>
<path d="M232.264 66.4114H228.303V77.9439H232.264V66.4114Z" fill="#263238"/>
<path d="M237.218 65.4327H232.264V78.9224H237.218V65.4327Z" fill="#757575"/>
<path opacity="0.2" d="M237.206 73.6484H232.264V78.9224H237.206V73.6484Z" fill="black"/>
<path d="M237.218 65.4327H232.264V78.9224H237.218V65.4327Z" stroke="#263238" stroke-linecap="round" stroke-linejoin="round"/>
<path d="M66.6414 77.938H70.6025V66.4055H66.6414V77.938Z" fill="#263238"/>
<path d="M61.6871 78.9166H66.6416V65.4269H61.6871V78.9166Z" fill="#757575"/>
<path opacity="0.2" d="M66.6473 73.6484H61.6929V78.7935H66.6473V73.6484Z" fill="black"/>
<path d="M61.6871 78.9166H66.6416V65.4269H61.6871V78.9166Z" stroke="#263238" stroke-linecap="round" stroke-linejoin="round"/>
<path d="M70.0067 72.8632C70.3644 71.9496 70.4197 70.9501 70.165 70.0044C69.9102 69.0588 69.3581 68.2143 68.586 67.5892L65.6723 65.2452C65.4869 65.0931 65.2713 64.9798 65.039 64.9125C64.8066 64.8451 64.5625 64.8251 64.3218 64.8537C64.0812 64.8823 63.8492 64.9589 63.6403 65.0787C63.4314 65.1985 63.2501 65.3589 63.1078 65.5499L51.5554 81.0613C51.3356 81.3515 51.2174 81.7028 51.2183 82.0634V98.7234C51.2182 98.947 51.2639 99.1684 51.3525 99.3747C51.4411 99.581 51.571 99.7681 51.7346 99.9251C51.8981 100.082 52.0921 100.206 52.3052 100.289C52.5184 100.373 52.7464 100.414 52.9761 100.411C53.4359 100.411 53.8769 100.233 54.2021 99.9167C54.5272 99.6002 54.7099 99.171 54.7099 98.7234V85.1926C54.7109 84.8586 54.8182 84.5331 55.0169 84.2609L63.6556 72.5409C63.7312 72.438 63.828 72.3515 63.9397 72.2869C64.0515 72.2222 64.1758 72.1809 64.3049 72.1655C64.4339 72.1501 64.5648 72.1609 64.6893 72.1973C64.8138 72.2336 64.9292 72.2948 65.0281 72.3768L66.6174 73.6894C67.0109 74.0145 67.5101 74.1931 68.0261 74.1934C68.4553 74.1909 68.8737 74.0627 69.227 73.8254C69.5803 73.5882 69.8519 73.2529 70.0067 72.8632Z" fill="white" stroke="#263238" stroke-linecap="round" stroke-linejoin="round"/>
<path d="M67.6226 71.3455C68.0781 71.3455 68.4473 70.9861 68.4473 70.5427C68.4473 70.0993 68.0781 69.7399 67.6226 69.7399C67.1671 69.7399 66.7979 70.0993 66.7979 70.5427C66.7979 70.9861 67.1671 71.3455 67.6226 71.3455Z" fill="#999999" stroke="#263238" stroke-linecap="round" stroke-linejoin="round"/>
<path d="M224.63 60.8385H74.2808V83.505H224.63V60.8385Z" fill="#263238"/>
<path opacity="0.2" d="M222.457 62.5437H76.3938C75.9349 62.5437 75.563 62.9058 75.563 63.3524V67.0207C75.563 67.4674 75.9349 67.8294 76.3938 67.8294H222.457C222.916 67.8294 223.288 67.4674 223.288 67.0207V63.3524C223.288 62.9058 222.916 62.5437 222.457 62.5437Z" fill="white"/>
<path d="M211.17 88.064H87.7598C84.282 80.3259 82.4394 71.9856 82.3418 63.5399H216.612C216.612 74.8966 211.17 88.064 211.17 88.064Z" fill="white"/>
<g opacity="0.7">
<path opacity="0.7" d="M97.7407 86.224C97.7407 86.224 100.444 86.0834 101.955 85.1985C103.466 84.3137 103.357 85.9955 104.224 86.1068C105.091 86.2182 107.138 85.5208 108.222 85.5208C109.305 85.5208 108.48 86.1654 109.702 86.1068C110.925 86.0482 110.268 86.1654 110.906 86.0482L116.138 85.1985C116.138 85.1985 118.793 84.7004 119.328 84.9524C119.864 85.2044 120.569 86.4467 121.351 86.1244C122.134 85.8021 121.718 85.5384 122.898 85.5384C123.628 85.5417 124.353 85.6443 125.053 85.8431C125.053 85.8431 125.162 85.5443 125.704 85.5384H126.673C126.673 85.5384 128.726 86.0658 129.051 86.0658C129.376 86.0658 131.802 85.5443 131.886 85.5384C131.97 85.5325 134.294 84.9524 134.294 84.9524C134.787 85.454 135.412 85.8147 136.1 85.9955C136.979 86.1068 137.906 85.8783 138.568 86.1654C139.231 86.4526 141.41 86.0482 141.41 86.0482C141.93 86.0515 142.449 86.0907 142.963 86.1654C143.637 86.3153 144.34 86.2951 145.004 86.1068C146.225 85.7926 147.506 85.7725 148.736 86.0482C150.693 86.394 152.493 85.5267 153.323 85.5208C154.154 85.515 157.477 85.8783 158.621 85.8783C159.765 85.8783 162.793 86.2768 164.9 86.0482C167.007 85.8197 168.385 86.3354 169.8 86.3354C171.215 86.3354 172.726 86.2768 173.051 86.2768C173.376 86.2768 174.941 85.2806 177.181 85.5208C179.42 85.7611 177.427 85.222 178.806 85.5208C180.185 85.8197 181.274 86.1068 181.858 86.1654C182.327 86.192 182.797 86.1724 183.261 86.1068L185.669 85.9369H197.673" stroke="#263238" stroke-linecap="round" stroke-linejoin="round"/>
<path opacity="0.7" d="M95.2422 81.7001C95.2422 81.7001 102.677 81.7001 104.019 81.5829C105.362 81.4657 106.078 80.7977 106.795 80.7977C107.511 80.7977 111.129 81.4657 111.129 81.4657C111.235 81.2472 111.407 81.0657 111.622 80.9461C111.838 80.8266 112.086 80.7747 112.333 80.7977C113.314 80.7977 112.815 80.8856 113.718 81.2372C114.621 81.5888 114.151 81.2372 114.627 81.5829C115.336 81.8928 116.085 82.1058 116.854 82.2158C116.854 82.2158 120.207 82.3681 120.334 81.5829C120.46 80.7977 122.14 82.2158 122.14 82.2158C122.14 82.2158 126.691 81.5829 128.449 81.5829C130.206 81.5829 134.613 81.2372 134.613 81.2372C134.613 81.2372 138.225 81.7001 138.394 81.7001C138.562 81.7001 139.158 82.6201 139.802 82.2158C140.446 81.8114 141.066 81.3485 141.831 81.4657C142.541 81.6371 143.228 81.8889 143.878 82.2158L145.557 81.3485L147.484 81.4657C147.484 81.4657 149.446 82.7373 150.849 82.2158C151.917 81.8003 152.96 81.3269 153.973 80.7977L155.701 82.2158H156.833L160.186 81.5829C160.444 81.8917 160.792 82.1173 161.184 82.2302C161.576 82.3432 161.994 82.3381 162.383 82.2158C163.804 81.8173 177.379 82.2158 180.835 82.2158C184.29 82.2158 185.049 81.3485 185.049 81.3485L187.709 82.2158H200.953" stroke="#263238" stroke-linecap="round" stroke-linejoin="round"/>
</g>
<path opacity="0.2" d="M212.427 84.677C211.699 86.7866 211.169 88.0641 211.169 88.0641H87.7593C87.7593 88.0641 87.1573 86.8335 86.3325 84.677H212.427Z" fill="black"/>
<path opacity="0.2" d="M214.998 75.8049C214.583 77.5629 214.125 79.2799 213.674 80.7976H84.9903C84.5448 79.3092 84.0873 77.6274 83.6899 75.8049H214.998Z" fill="black"/>
<path d="M211.17 88.064H87.7598C84.282 80.3259 82.4394 71.9856 82.3418 63.5399H216.612C216.612 74.8966 211.17 88.064 211.17 88.064Z" stroke="#263238" stroke-linecap="round" stroke-linejoin="round"/>
<path d="M74.251 59.6724H70.5728V84.6828H74.251V59.6724Z" fill="#757575"/>
<path opacity="0.2" d="M74.1786 77.264H70.5967V84.6828H74.1786V77.264Z" fill="black"/>
<path d="M74.251 59.6724H70.5728V84.6828H74.251V59.6724Z" stroke="#263238" stroke-linecap="round" stroke-linejoin="round"/>
<path d="M228.333 59.6724H224.654V84.6828H228.333V59.6724Z" fill="#757575"/>
<path opacity="0.2" d="M228.333 77.264H224.625V84.6828H228.333V77.264Z" fill="black"/>
<path d="M228.333 59.6724H224.654V84.6828H228.333V59.6724Z" stroke="#263238" stroke-linecap="round" stroke-linejoin="round"/>
<path d="M224.685 58.6234V76.8656H74.2207V58.6234H72.7759V78.0903H226.129V58.6234H224.685Z" fill="#999999" stroke="#263238" stroke-linecap="round" stroke-linejoin="round"/>
<path d="M233.576 89.3532V130.262C233.576 130.952 233.294 131.614 232.793 132.102C232.292 132.59 231.612 132.864 230.903 132.864H67.9839C67.275 132.864 66.5952 132.59 66.0939 132.102C65.5926 131.614 65.311 130.952 65.311 130.262V89.3532C65.311 88.6631 65.5926 88.0013 66.0939 87.5134C66.5952 87.0255 67.275 86.7513 67.9839 86.7513H143.053V89.3532C143.053 89.3532 130.237 100.177 108.137 104.167C111.304 118.12 128.605 128.779 149.483 128.779C170.36 128.779 187.662 118.108 190.834 104.167C168.705 100.177 155.888 89.3532 155.888 89.3532V86.7279H230.921C231.273 86.7302 231.62 86.8 231.944 86.9332C232.268 87.0665 232.562 87.2606 232.808 87.5045C233.055 87.7483 233.25 88.0371 233.381 88.3544C233.513 88.6716 233.579 89.011 233.576 89.3532Z" fill="white" stroke="#263238" stroke-linecap="round" stroke-linejoin="round"/>
<path d="M233.576 89.3532V130.262C233.576 130.604 233.507 130.943 233.372 131.259C233.237 131.575 233.04 131.862 232.791 132.104C232.542 132.345 232.247 132.537 231.922 132.667C231.597 132.798 231.249 132.864 230.897 132.864H67.9841C67.6326 132.864 67.2843 132.798 66.9594 132.667C66.6344 132.537 66.339 132.345 66.0902 132.104C65.8413 131.862 65.6439 131.575 65.5092 131.259C65.3745 130.943 65.3052 130.604 65.3052 130.262V89.3532C65.3068 88.6621 65.5895 87.9997 66.0916 87.511C66.5936 87.0223 67.2741 86.747 67.9841 86.7455H143.053V89.3532C143.053 89.3532 130.231 100.171 108.137 104.167C111.304 118.12 128.605 128.779 149.489 128.779C170.372 128.779 187.662 118.108 190.834 104.167C168.705 100.171 155.888 89.3532 155.888 89.3532V86.7279H230.921C231.631 86.7341 232.309 87.014 232.807 87.5062C233.304 87.9983 233.581 88.6626 233.576 89.3532Z" fill="white"/>
<path opacity="0.2" d="M229.964 89.9803V127.748C229.964 127.999 229.913 128.248 229.814 128.48C229.715 128.711 229.57 128.922 229.387 129.099C229.204 129.276 228.987 129.416 228.748 129.511C228.509 129.606 228.254 129.654 227.996 129.652H69.5854C69.3283 129.653 69.0735 129.605 68.8358 129.509C68.598 129.414 68.382 129.273 68.2002 129.096C68.0184 128.919 67.8743 128.709 67.7762 128.478C67.6782 128.246 67.6281 127.998 67.6289 127.748V89.9803C67.6281 89.7294 67.6781 89.4809 67.776 89.2488C67.8739 89.0167 68.0178 88.8057 68.1995 88.6278C68.3811 88.4498 68.597 88.3085 68.8348 88.2117C69.0727 88.115 69.3277 88.0649 69.5854 88.0641H143.029V89.3533C143.029 89.3533 130.207 100.171 108.113 104.167C111.28 118.12 128.581 128.779 149.465 128.779C170.348 128.779 187.638 118.108 190.81 104.167C168.681 100.171 155.864 89.3533 155.864 89.3533V88.0641H228.014C228.533 88.0687 229.029 88.2727 229.394 88.6315C229.759 88.9904 229.964 89.4751 229.964 89.9803Z" fill="white"/>
<path d="M233.576 89.3532V130.262C233.576 130.604 233.507 130.943 233.372 131.259C233.237 131.575 233.04 131.862 232.791 132.104C232.542 132.345 232.247 132.537 231.922 132.667C231.597 132.798 231.249 132.864 230.897 132.864H67.9841C67.6326 132.864 67.2843 132.798 66.9594 132.667C66.6344 132.537 66.339 132.345 66.0902 132.104C65.8413 131.862 65.6439 131.575 65.5092 131.259C65.3745 130.943 65.3052 130.604 65.3052 130.262V89.3532C65.3068 88.6621 65.5895 87.9997 66.0916 87.511C66.5936 87.0223 67.2741 86.747 67.9841 86.7455H143.053V89.3532C143.053 89.3532 130.231 100.171 108.137 104.167C111.304 118.12 128.605 128.779 149.489 128.779C170.372 128.779 187.662 118.108 190.834 104.167C168.705 100.171 155.888 89.3532 155.888 89.3532V86.7279H230.921C231.631 86.7341 232.309 87.014 232.807 87.5062C233.304 87.9983 233.581 88.6626 233.576 89.3532V89.3532Z" stroke="#263238" stroke-linecap="round" stroke-linejoin="round"/>
<path opacity="0.2" d="M179.757 144.988L187.758 166.711C187.758 166.711 191.219 142.802 193.284 142.802C195.349 142.802 199.798 155.876 199.798 155.876C199.798 155.876 202.543 149.055 205.143 148.809C207.744 148.563 210.098 165.557 210.098 165.557L210.501 203.278L207.22 260.325C207.22 260.325 186.289 237.881 180.185 232.097C174.08 226.313 168.247 213.585 166.561 211.001C164.876 208.417 164.448 194.886 164.448 194.886C166.582 192.228 167.698 188.929 167.603 185.557C167.603 185.557 172.515 177.552 172.214 171.645C171.913 165.738 171.155 142.785 179.757 144.988Z" fill="black" fill-opacity="0.7"/>
<path d="M242.733 250.222L211.043 266.448C211.043 266.284 206.877 259.715 201.845 252.285C199.569 248.921 197.113 245.388 194.783 242.188C190.967 236.955 186.114 232.437 185.699 231.452C184.495 228.522 175.212 217.553 173.135 213.286C171.058 209.02 170.583 195.747 169.668 192.624C168.753 189.501 171.377 186.518 173.484 185.065C175.591 183.611 177.801 179.791 177.801 179.791C177.801 179.791 175.471 170.954 175.447 166.459C175.423 161.965 173.852 146.277 175.73 144.812C177.608 143.347 179.288 143.963 179.757 144.971C181.298 148.293 182.683 156.65 183.869 160.5C185.055 164.35 187.282 175.519 188.378 176.322C189.474 177.124 191.424 174.112 191.424 174.112C191.424 174.112 191.611 164.736 192.026 160.851L191.424 148.545C191.424 148.545 190.298 141.15 192.917 140.447C196.529 139.48 197.847 141.689 198.257 142.621C198.666 143.552 200.352 148.92 200.352 148.92L200.448 149.289C200.448 149.325 200.448 149.36 200.448 149.401V149.465C200.476 149.567 200.506 149.678 200.538 149.799C200.605 150.045 200.683 150.338 200.767 150.672C201.568 153.725 203.109 159.837 203.043 161.343C202.952 163.377 202.224 174.64 203.253 176.978L204.855 161.42C204.855 161.42 202.272 149.43 203.025 147.701C203.777 145.973 207.323 147.883 207.744 148.563C208.166 149.242 211.609 153.356 212.223 154.927L212.825 156.497C212.825 156.497 213.674 152.782 215.667 153.749C217.659 154.716 217.906 159.439 218.045 161.502C218.183 163.564 219.628 176.831 219.851 176.855C220.073 176.878 222.373 183.77 222.06 188.323C221.404 198.068 223.137 205.317 223.198 209.056C223.258 212.794 220.362 221.455 220.362 221.455C220.465 221.625 222.355 224.754 222.873 227.503C223.252 229.519 230 236.803 235.515 242.598C239.349 246.595 242.564 249.865 242.733 250.222Z" fill="white"/>
<path opacity="0.4" d="M201.851 252.296C199.575 248.933 197.119 245.399 194.789 242.2C190.972 236.967 186.12 232.449 185.705 231.464C184.501 228.534 175.218 217.564 173.141 213.298C171.064 209.032 170.589 195.759 169.674 192.636C168.759 189.512 171.383 186.53 173.49 185.076C175.597 183.623 177.807 179.802 177.807 179.802C177.807 179.802 175.477 170.965 175.453 166.471C175.429 161.976 173.858 146.289 175.736 144.824C177.614 143.359 179.294 143.974 179.763 144.982C181.304 148.305 182.689 156.661 183.875 160.511C185.061 164.361 187.288 175.53 188.384 176.333C189.479 177.136 191.43 174.124 191.43 174.124C191.43 174.124 191.617 164.748 192.032 160.863L191.43 148.557C191.43 148.557 190.304 141.162 192.923 140.458C196.535 139.491 197.853 141.701 198.263 142.632C198.672 143.564 200.358 148.932 200.358 148.932L200.454 149.301C200.454 149.336 200.454 149.371 200.454 149.412V149.477C200.478 149.578 200.508 149.69 200.544 149.811C200.61 150.057 200.689 150.35 200.773 150.684C199.84 149.248 198.558 148.024 196.842 147.701C192.026 146.787 193.067 152.003 193.525 155.132C193.784 157.208 193.734 159.31 193.374 161.373L194.578 160.699C193.712 162.205 192.471 174.722 192.471 177.505C192.471 180.289 190.208 181.215 188.179 180.4C186.15 179.586 185.428 166.811 183.887 164.519C182.346 162.228 178.059 166.606 177.867 170.608C177.674 174.61 181.509 186.547 180.6 189.36C179.691 192.173 179.703 202.838 179.703 202.838L178.595 200.09C178.668 200.465 178.595 201.725 176.278 205.434C175.407 206.777 174.844 208.286 174.627 209.86C174.41 211.433 174.544 213.034 175.019 214.552C176.434 217.594 183.61 225.61 184.814 226.436C184.814 226.436 185.687 222.955 188.426 223.881C187.493 225.325 186.814 226.909 186.415 228.569C185.849 231.124 191.562 232.759 193.35 235.191C194.446 236.674 195.18 241.192 201.851 252.296Z" fill="white"/>
<path opacity="0.4" d="M235.551 242.604C229.916 237.078 220.001 231.816 220.603 230.439C221.41 228.587 220.386 224.643 218.652 221.444C216.919 218.244 219.254 213.052 219.254 213.052L220.326 216.07C221.183 212.589 221.284 208.972 220.621 205.452C219.525 199.469 218.67 201.572 218.67 201.572C218.67 201.572 218.893 196.181 219.874 193.239C220.856 190.298 221.68 183.154 220.326 178.929C218.971 174.704 216.112 175.501 215.347 176.954C214.583 178.408 215.402 184.074 216.034 185.932C216.666 187.79 213.975 190.913 213.921 188.592C213.867 186.272 212.849 179.802 212.849 179.802L214.89 166.811L212.849 156.491C212.849 156.491 213.698 152.776 215.691 153.743C217.683 154.71 217.93 159.433 218.068 161.496C218.207 163.558 219.652 176.826 219.874 176.849C220.097 176.872 222.397 183.764 222.084 188.317C221.428 198.062 223.161 205.311 223.222 209.05C223.282 212.788 220.386 221.449 220.386 221.449C220.488 221.619 222.379 224.749 222.897 227.497C223.276 229.513 230.024 236.797 235.539 242.592L235.551 242.604Z" fill="white"/>
<path opacity="0.4" d="M212.223 154.927C212.337 155.22 212.434 155.46 212.506 155.653C210.592 151.323 207.329 152.665 206.751 153.895C206.173 155.126 208.117 162.762 208.557 163.945C208.996 165.129 206.811 174.581 206.492 177.71C206.173 180.84 205.324 181.478 205.324 181.478C203.163 181.637 202.916 175.829 202.916 175.032C202.958 175.699 203.092 176.357 203.313 176.99L204.915 161.431C204.915 161.431 202.272 149.43 203.024 147.701C203.777 145.973 207.323 147.883 207.744 148.563C208.166 149.242 211.609 153.356 212.223 154.927Z" fill="white"/>
<path d="M242.732 250.222C242.323 249.32 223.523 230.884 222.866 227.497C222.337 224.672 220.35 221.444 220.35 221.444C220.35 221.444 223.246 212.8 223.185 209.044C223.125 205.288 221.379 198.056 222.048 188.311C222.361 183.758 220.067 176.867 219.838 176.843C219.61 176.82 218.165 163.553 218.032 161.49C217.9 159.427 217.653 154.704 215.654 153.737C213.656 152.77 212.813 156.485 212.813 156.485L212.211 154.915C211.609 153.344 208.153 149.231 207.732 148.551C207.311 147.871 203.771 145.955 203.012 147.69C202.254 149.424 204.897 161.396 204.897 161.396L203.307 176.972C202.278 174.628 203.006 163.371 203.097 161.338C203.187 159.304 200.358 148.914 200.358 148.914C200.358 148.914 198.66 143.57 198.263 142.609C197.865 141.648 196.535 139.468 192.923 140.435C190.304 141.138 191.43 148.533 191.43 148.533L192.032 160.839C191.629 164.742 191.43 174.101 191.43 174.101C191.43 174.101 189.479 177.107 188.384 176.31C187.288 175.513 185.061 164.35 183.875 160.488C182.689 156.626 181.304 148.281 179.763 144.959C179.294 143.951 177.614 143.336 175.736 144.801C173.858 146.266 175.423 161.947 175.453 166.447C175.483 170.948 177.807 179.779 177.807 179.779C177.807 179.779 175.597 183.576 173.49 185.053C171.383 186.53 168.759 189.483 169.674 192.612C170.589 195.742 171.064 209.02 173.141 213.275C175.218 217.529 184.477 228.511 185.705 231.441C186.12 232.425 190.972 236.943 194.789 242.176C202.284 252.449 211.043 266.202 211.043 266.437" stroke="#263238" stroke-linecap="round" stroke-linejoin="round"/>
<path d="M177.801 179.808C177.801 179.808 179.293 187.01 179.239 188.217C179.239 188.217 177.933 193.778 177.921 197.382C177.007 198.74 176.186 200.156 175.465 201.619C174.959 202.92 174.056 206.12 174.429 207.901" stroke="#263238" stroke-linecap="round" stroke-linejoin="round"/>
<path d="M175.074 190.45C175.074 190.45 178.734 190.479 178.499 191.979" stroke="#263238" stroke-linecap="round" stroke-linejoin="round"/>
<path d="M177.921 197.382C177.921 197.382 175.573 196.392 174.749 197.722" stroke="#263238" stroke-linecap="round" stroke-linejoin="round"/>
<path d="M191.436 174.124C191.436 174.124 191.267 179.644 189.774 179.205" stroke="#263238" stroke-linecap="round" stroke-linejoin="round"/>
<path d="M203.307 176.972C203.307 176.972 202.874 179.99 204.042 180.922" stroke="#263238" stroke-linecap="round" stroke-linejoin="round"/>
<path d="M212.831 156.497C212.831 156.497 214.456 164.115 214.83 165.92C215.203 167.725 212.982 176.937 213.024 179.334C213.066 181.73 214.119 185.158 213.975 186.77" stroke="#263238" stroke-linecap="round" stroke-linejoin="round"/>
<path d="M219.321 214.353C219.321 214.353 218.797 219.328 220.368 221.455" stroke="#263238" stroke-linecap="round" stroke-linejoin="round"/>
<path d="M187.757 224.198C187.757 224.198 184.254 227.304 185.536 231.124" stroke="#263238" stroke-linecap="round" stroke-linejoin="round"/>
<path d="M210.784 185.475C210.838 187.666 209.52 190.221 209.381 193.251" stroke="#263238" stroke-linecap="round" stroke-linejoin="round"/>
<path d="M199.623 183.518C200.369 185.311 198.744 189.213 198.497 190.678C198.398 191.825 198.527 192.979 198.876 194.077" stroke="#263238" stroke-linecap="round" stroke-linejoin="round"/>
<path d="M220.603 189.694C220.302 191.599 218.917 192.958 218.652 198.818" stroke="#263238" stroke-linecap="round" stroke-linejoin="round"/>
<path d="M186.421 182.961C187.433 184.033 186.752 189.155 187.023 189.993" stroke="#263238" stroke-linecap="round" stroke-linejoin="round"/>
<path d="M205.282 153.456C205.282 153.456 208.725 151.001 211.687 153.895" stroke="#263238" stroke-linecap="round" stroke-linejoin="round"/>
<path d="M193.422 147.813C193.422 147.813 194.024 146.834 196.932 147.074C199.84 147.314 200.357 148.908 200.357 148.908" stroke="#263238" stroke-linecap="round" stroke-linejoin="round"/>
<path d="M184.928 164.543C184.928 164.543 183.953 163.142 181.382 163.605C178.812 164.068 177.668 167.608 177.668 167.608" fill="white"/>
<path d="M184.928 164.543C184.928 164.543 183.953 163.142 181.382 163.605C178.812 164.068 177.668 167.608 177.668 167.608" stroke="#263238" stroke-linecap="round" stroke-linejoin="round"/>
<path d="M219.856 176.855C219.856 176.855 217.713 173.831 215.137 175.126" stroke="#263238" stroke-linecap="round" stroke-linejoin="round"/>
<path opacity="0.2" d="M128.557 154.704C132.169 157.429 129.123 174.153 129.123 174.153L129.442 179.597L135.637 176.972L138.46 188.604C138.46 188.604 138.388 192.864 140.681 194.464C140.681 194.464 141.247 204.022 140.681 211.007C140.115 217.992 128.641 226.202 124.686 233.533C120.731 240.864 94.9353 262.411 94.9353 262.411L73.0947 252.296L88.8852 190.216L103.032 172.513L111.418 152.149C111.418 152.149 112.857 165.451 112.02 174.417L128.557 154.704Z" fill="black" fill-opacity="0.7"/>
<path d="M134.637 191.856C134.089 194.423 135.408 208.493 135.179 210.392C134.95 212.29 123.452 225.042 122.874 226.008C122.296 226.975 114.609 231.283 112.821 233.339C104.465 242.827 99.9018 251.564 96.2356 260.325C95.5312 262.012 94.857 263.706 94.1948 265.405L61.0366 246.653C63.8239 243.29 66.4546 240.301 68.8626 237.582C73.6786 232.068 77.5134 227.655 79.3916 223.489C79.968 222.425 80.6282 221.406 81.3662 220.441C82.1126 219.41 82.7809 218.56 82.7809 218.56C82.7809 218.56 80.3729 211.956 80.9327 209.882C81.4926 207.807 80.2404 190.755 80.2404 190.755C80.2404 190.755 78.609 179.146 77.0017 176.216C76.6069 175.451 76.4283 174.598 76.4839 173.743C76.5622 171.065 78.1575 167.69 78.9401 163.781C79.9876 158.507 79.4819 155.899 82.7688 157.722C86.0558 159.544 84.5206 170.614 84.5206 170.614L89.4871 181.326C90.7935 178.736 89.4871 171.176 89.4209 169.389C89.4209 169.096 89.4209 168.61 89.3728 167.977C89.2704 164.895 89.0597 158.478 89.3306 155.946C89.3306 155.806 89.3306 155.677 89.3788 155.56C89.7821 152.946 91.2209 144.631 92.136 143.705C93.4965 142.334 95.6576 141.179 97.6924 144.291C98.8302 146.049 98.3426 159.99 98.3426 159.99C98.3426 159.99 103.062 154.446 104.495 153.093C105.928 151.739 110.274 149.266 111.436 152.131C112.598 154.997 108.312 163.851 108.312 163.851C109.209 165.902 109.317 171.581 109.317 171.581C109.317 171.581 111.346 178.677 112.592 178.613H112.646C113.007 178.537 113.405 177.247 113.82 175.437C114.843 171.001 115.957 163.412 116.83 162.75L117.432 162.281C117.46 162.247 117.492 162.218 117.528 162.193L117.751 162C119.882 160.154 124.373 156.052 124.373 156.052C124.373 156.052 124.692 154.089 128.623 154.692C132.554 155.296 126.877 166.588 126.877 166.588C126.089 170.18 124.879 179.421 124.879 179.421C124.512 183.266 124.728 193.597 124.728 193.597C124.728 193.597 126.588 187.584 126.468 185.393C126.348 183.201 130.164 177.833 131.284 176.45C132.404 175.068 137.4 175.554 136.01 178.208C134.619 180.863 135.185 189.278 134.637 191.856Z" fill="white"/>
<path opacity="0.4" d="M79.3737 223.512C79.9501 222.448 80.6103 221.429 81.3483 220.465C81.3483 220.465 79.3918 225.739 79.1991 228.546C79.0727 230.398 74.0641 233.603 68.8447 237.605C73.6908 232.091 77.4955 227.679 79.3737 223.512Z" fill="white"/>
<path opacity="0.4" d="M81.3484 220.465C82.0949 219.434 82.7631 218.584 82.7631 218.584C82.7631 218.584 80.3551 211.98 80.9149 209.905C81.4748 207.831 80.2226 190.778 80.2226 190.778C80.2226 190.778 78.5912 179.17 76.9839 176.24L80.7283 182.609C80.7283 182.609 80.3611 187.643 81.4266 190.403C82.4922 193.163 83.8346 201.584 83.8346 201.584C83.8346 201.584 82.2574 208.663 82.7932 211.212C83.329 213.761 85.743 212.835 85.743 212.835C85.743 212.835 86.9289 217.5 81.3484 220.465Z" fill="white"/>
<path opacity="0.4" d="M90.0831 172.512C92.6656 187.233 88.2169 183.16 86.6095 179.984C85.0022 176.808 81.2276 170.796 78.3862 172.079C77.5883 172.443 76.9198 173.031 76.4658 173.767C76.5441 171.089 78.1394 167.713 78.922 163.805C79.9695 158.531 79.4638 155.923 82.7507 157.745C86.0376 159.568 84.5025 170.637 84.5025 170.637L89.469 181.349C90.7754 178.759 89.469 171.2 89.4028 169.413C89.4028 169.12 89.4028 168.633 89.3546 168C89.5533 169.354 89.7941 170.86 90.0831 172.512Z" fill="white"/>
<path opacity="0.4" d="M96.4041 157.968C96.4041 157.968 93.6168 154.417 91.1968 154.599C90.7812 154.62 90.3813 154.76 90.0465 155.001C89.7116 155.241 89.4565 155.572 89.3125 155.952C89.3125 155.812 89.3125 155.683 89.3607 155.565C89.764 152.952 91.2028 144.637 92.1178 143.711C93.4783 142.339 95.6395 141.185 97.6743 144.297C98.8121 146.055 98.3244 159.996 98.3244 159.996C98.3244 159.996 103.044 154.452 104.477 153.098C105.91 151.745 110.256 149.272 111.418 152.137C112.58 155.003 108.294 163.857 108.294 163.857C109.191 165.908 109.299 171.587 109.299 171.587C109.299 171.587 111.328 178.683 112.574 178.619C109.829 183.647 107.999 172.53 107.999 172.53C108.408 170.233 106.951 165.252 107.096 163.939C107.24 162.627 104.567 157.986 100.064 159.251C95.5613 160.517 98.8121 177.839 98.8121 177.839C97.9223 179.219 97.4046 180.795 97.3071 182.422C95.9164 180.752 97.3071 175.976 97.3071 175.976C96.073 171.405 96.4041 157.968 96.4041 157.968Z" fill="white"/>
<path opacity="0.4" d="M117.39 162.263C115.469 164.227 115.734 169.19 113.778 175.419C114.801 170.983 115.915 163.394 116.788 162.732L117.39 162.263Z" fill="white"/>
<path opacity="0.4" d="M134.637 191.856C134.09 194.423 135.408 208.493 135.179 210.391C134.95 212.29 123.452 225.041 122.874 226.008C122.296 226.975 114.609 231.282 112.821 233.339C104.465 242.827 99.902 251.564 96.2358 260.325C97.6168 255.783 99.2835 251.329 101.226 246.987C105.182 238.332 106.795 236.791 109.167 234.318C111.539 231.845 111.28 226.589 111.28 226.589C113.03 226.178 114.825 225.972 116.626 225.973C119.636 225.973 128.545 213.609 131.609 211.44C134.674 209.272 135.221 209.272 131.609 204.49C127.997 199.709 129.021 205.258 127.937 205.076C126.854 204.895 126.264 207.204 126.264 207.204C125.884 202.328 122.652 196.656 121.971 195.238C121.291 193.819 123.621 185.504 123.139 183.189C122.658 180.875 125.21 166.781 125.21 166.781C125.21 166.781 124.891 161.373 119.858 161.355C119.086 161.313 118.323 161.537 117.703 161.988C119.834 160.142 124.325 156.04 124.325 156.04C124.325 156.04 124.644 154.077 128.575 154.68C132.506 155.284 126.829 166.576 126.829 166.576C126.041 170.168 124.831 179.41 124.831 179.41C124.464 183.254 124.68 193.585 124.68 193.585C124.68 193.585 126.541 187.573 126.42 185.381C126.3 183.189 130.116 177.822 131.236 176.439C132.356 175.056 137.352 175.542 135.962 178.197C134.571 180.851 135.185 189.278 134.637 191.856Z" fill="white"/>
<path d="M94.1889 265.458C98.2765 254.951 102.846 244.696 112.821 233.369C114.627 231.341 122.29 227.034 122.874 226.038C123.458 225.042 134.956 212.314 135.179 210.421C135.402 208.528 134.089 194.452 134.637 191.886C135.185 189.319 134.547 180.857 135.932 178.22C137.316 175.583 132.32 175.103 131.206 176.462C130.092 177.822 126.288 183.236 126.39 185.405C126.492 187.573 124.65 193.609 124.65 193.609C124.65 193.609 124.433 183.277 124.801 179.433C124.801 179.433 126.005 170.192 126.799 166.6C126.799 166.6 132.47 155.302 128.545 154.704C124.62 154.106 124.295 156.063 124.295 156.063C124.295 156.063 118.028 161.795 116.788 162.732C115.548 163.67 113.856 178.32 112.61 178.595C111.364 178.871 109.281 171.563 109.281 171.563C109.281 171.563 109.173 165.885 108.276 163.834C108.276 163.834 112.556 155.003 111.4 152.114C110.244 149.225 105.898 151.727 104.459 153.075C103.02 154.423 98.3066 159.972 98.3066 159.972C98.3066 159.972 98.7942 146.019 97.6564 144.273C95.6217 141.15 93.4424 142.304 92.1 143.687C91.1849 144.613 89.7462 152.928 89.3428 155.542C88.9395 158.156 89.3428 167.578 89.3849 169.372C89.4271 171.165 90.7575 178.718 89.4512 181.308L84.4847 170.596C84.4847 170.596 86.0258 159.515 82.7329 157.704C79.4399 155.894 79.9516 158.507 78.9041 163.764C77.8567 169.02 75.3644 173.292 76.9657 176.228C78.567 179.164 80.2045 190.766 80.2045 190.766C80.2045 190.766 81.4446 207.819 80.8968 209.893C80.3489 211.968 82.763 218.578 82.763 218.578C82.763 218.578 79.9817 222.147 79.3737 223.506C76.5684 229.712 69.4708 236.498 61.0308 246.706" stroke="#263238" stroke-linecap="round" stroke-linejoin="round"/>
<path d="M98.3247 160.007C97.6256 161.014 97.2716 162.21 97.3134 163.424C97.3134 165.651 98.8124 177.839 98.8124 177.839C98.8124 177.839 97.7227 179.093 97.6686 180.183" stroke="#263238" stroke-linecap="round" stroke-linejoin="round"/>
<path d="M124.662 193.579C124.827 195.638 125.371 197.651 126.269 199.521C127.678 202.229 127.221 203.723 126.739 205.323C126.416 206.725 126.245 208.157 126.227 209.595" stroke="#263238" stroke-linecap="round" stroke-linejoin="round"/>
<path d="M89.999 178.923C89.999 178.923 91.0465 182.158 89.1021 183.693" stroke="#263238" stroke-linecap="round" stroke-linejoin="round"/>
<path d="M112.628 178.595C112.628 178.595 112.833 179.867 110.985 179.984" stroke="#263238" stroke-linecap="round" stroke-linejoin="round"/>
<path d="M125.042 163.945C125.042 163.945 120.406 159.023 116.806 162.732" stroke="#263238" stroke-linecap="round" stroke-linejoin="round"/>
<path d="M106.259 161.179C106.259 161.179 104.122 158.548 102.268 158.706C100.414 158.865 97.9094 159.966 97.6265 161.414" stroke="#263238" stroke-linecap="round" stroke-linejoin="round"/>
<path d="M127.136 203.74C127.884 204.782 128.429 205.948 128.744 207.18" stroke="#263238" stroke-linecap="round" stroke-linejoin="round"/>
<path d="M115.096 183.734C113.657 186.342 114.344 190.766 113.814 191.979" stroke="#263238" stroke-linecap="round" stroke-linejoin="round"/>
<path d="M99.8539 179.404C100.191 180.904 99.1255 183.348 98.963 185.147C98.8004 186.946 100.311 189.723 100.035 192.249" stroke="#263238" stroke-linecap="round" stroke-linejoin="round"/>
<path d="M90.0831 185.545C90.0831 185.545 88.825 188.37 88.8791 190.233C88.9333 192.097 89.6136 196.181 89.6136 196.181" stroke="#263238" stroke-linecap="round" stroke-linejoin="round"/>
<path d="M80.8307 185.41C80.8307 185.41 80.3732 188.34 81.4327 190.403C82.4922 192.466 83.5216 196.849 83.5216 196.849" stroke="#263238" stroke-linecap="round" stroke-linejoin="round"/>
<path d="M82.7632 218.578C83.3181 218.428 83.814 218.12 84.1865 217.693C84.559 217.265 84.7909 216.739 84.8521 216.181" stroke="#263238" stroke-linecap="round" stroke-linejoin="round"/>
<path d="M113.026 227.509C113.026 227.509 114.176 231.652 111.972 234.318" stroke="#263238" stroke-linecap="round" stroke-linejoin="round"/>
<path d="M76.4961 173.274C76.4961 173.274 79.7348 170.198 82.185 172.794" stroke="#263238" stroke-linecap="round" stroke-linejoin="round"/>
<path d="M89.3608 155.565C89.3608 155.565 91.7688 153.11 94.5862 155.735" stroke="#263238" stroke-linecap="round" stroke-linejoin="round"/>
</svg>
